<?xml version="1.0" encoding="UTF-8" standalone="no"?>
<!-- License Agreement at http://iconmonstr.com/license/ -->

<svg
   xmlns:dc="http://purl.org/dc/elements/1.1/"
   xmlns:cc="http://creativecommons.org/ns#"
   xmlns:rdf="http://www.w3.org/1999/02/22-rdf-syntax-ns#"
   xmlns:svg="http://www.w3.org/2000/svg"
   xmlns="http://www.w3.org/2000/svg"
   xmlns:sodipodi="http://sodipodi.sourceforge.net/DTD/sodipodi-0.dtd"
   xmlns:inkscape="http://www.inkscape.org/namespaces/inkscape"
   version="1.1"
   x="0px"
   y="0px"
   width="512px"
   height="512px"
   viewBox="0 0 512 512"
   enable-background="new 0 0 512 512"
   xml:space="preserve"
   id="svg4506"
   inkscape:version="0.92.3 (2405546, 2018-03-11)"
   sodipodi:docname="alarm.svg"
   inkscape:export-filename="/home/crawford/Projects/Squirrel/images/alarm36.png"
   inkscape:export-xdpi="6.328125"
   inkscape:export-ydpi="6.328125"><metadata
     id="metadata4513"><rdf:RDF><cc:Work
         rdf:about=""><dc:format>image/svg+xml</dc:format><dc:type
           rdf:resource="http://purl.org/dc/dcmitype/StillImage" /><dc:title></dc:title></cc:Work></rdf:RDF></metadata><defs
     id="defs4511" /><sodipodi:namedview
     pagecolor="#ffffff"
     bordercolor="#666666"
     borderopacity="1"
     objecttolerance="10"
     gridtolerance="10"
     guidetolerance="10"
     inkscape:pageopacity="0"
     inkscape:pageshadow="2"
     inkscape:window-width="1861"
     inkscape:window-height="1028"
     id="namedview4509"
     showgrid="false"
     inkscape:zoom="0.4609375"
     inkscape:cx="-1093.4237"
     inkscape:cy="256"
     inkscape:window-x="59"
     inkscape:window-y="24"
     inkscape:window-maximized="1"
     inkscape:current-layer="svg4506" /><path
     id="bell-8-icon"
     d="m 316.53282,105.06349 c -12.41485,-6.901457 -20.101,-19.757577 -20.07755,-33.622667 v -0.0681 c 0,-21.64045 -18.11374,-39.18162 -40.45504,-39.18162 -22.34377,0 -40.45505,17.54237 -40.45505,39.18162 v 0.0681 c 0.0259,13.88063 -7.64664,26.71403 -20.07631,33.622667 -90.07249,50.07476 -38.31596,216.371 -132.430863,245.7605 v 38.8433 H 448.96245 v -38.8433 C 354.84754,321.43209 406.60655,155.13706 316.53282,105.06349 Z M 256.00023,55.476483 c 9.05131,0 16.41407,7.13099 16.41407,15.8962 0,8.7652 -7.36276,15.8962 -16.41407,15.8962 -9.04885,0 -16.41407,-7.131 -16.41407,-15.8962 0,-8.76521 7.36522,-15.8962 16.41407,-15.8962 z M 127.52291,352.0099 c 41.60174,-49.75439 38.21597,-128.39616 59.25137,-179.1906 11.44961,-27.64531 31.83327,-47.45429 69.22595,-47.45429 37.00016,0 57.61711,19.42164 69.22718,47.45429 21.0391,50.79802 17.65211,129.43741 59.25137,179.1906 z m 184.20715,70.02362 c 0,29.51382 -24.7038,53.43643 -55.17562,53.43643 -30.47058,0 -55.17315,-23.9238 -55.17315,-53.43643 z"
     style="fill:#ec8100;fill-opacity:1"
     inkscape:connector-curvature="0"
     sodipodi:nodetypes="scsssccccccssssssccsscccscc" /></svg>