<?xml version="1.0" encoding="UTF-8" standalone="no"?>
<!-- License Agreement at http://iconmonstr.com/license/ -->

<svg
   xmlns:dc="http://purl.org/dc/elements/1.1/"
   xmlns:cc="http://creativecommons.org/ns#"
   xmlns:rdf="http://www.w3.org/1999/02/22-rdf-syntax-ns#"
   xmlns:svg="http://www.w3.org/2000/svg"
   xmlns="http://www.w3.org/2000/svg"
   xmlns:sodipodi="http://sodipodi.sourceforge.net/DTD/sodipodi-0.dtd"
   xmlns:inkscape="http://www.inkscape.org/namespaces/inkscape"
   version="1.1"
   x="0px"
   y="0px"
   width="512px"
   height="512px"
   viewBox="0 0 512 512"
   enable-background="new 0 0 512 512"
   xml:space="preserve"
   id="svg174129"
   inkscape:version="0.92.3 (2405546, 2018-03-11)"
   sodipodi:docname="key.svg"
   inkscape:export-filename="/home/crawford/Projects/Squirrel/images/key36.png"
   inkscape:export-xdpi="6.328125"
   inkscape:export-ydpi="6.328125"><metadata
     id="metadata174136"><rdf:RDF><cc:Work
         rdf:about=""><dc:format>image/svg+xml</dc:format><dc:type
           rdf:resource="http://purl.org/dc/dcmitype/StillImage" /><dc:title /></cc:Work></rdf:RDF></metadata><defs
     id="defs174134" /><sodipodi:namedview
     pagecolor="#ffffff"
     bordercolor="#666666"
     borderopacity="1"
     objecttolerance="10"
     gridtolerance="10"
     guidetolerance="10"
     inkscape:pageopacity="0"
     inkscape:pageshadow="2"
     inkscape:window-width="1861"
     inkscape:window-height="1028"
     id="namedview174132"
     showgrid="false"
     inkscape:zoom="0.921875"
     inkscape:cx="-34.711864"
     inkscape:cy="256"
     inkscape:window-x="59"
     inkscape:window-y="24"
     inkscape:window-maximized="1"
     inkscape:current-layer="svg174129" /><path
     sodipodi:type="arc"
     style="fill:#ffffff;fill-opacity:1;fill-rule:nonzero;stroke:none"
     id="path5984"
     sodipodi:cx="297.22034"
     sodipodi:cy="270.10168"
     sodipodi:rx="188.74576"
     sodipodi:ry="187.66101"
     d="m 485.96609,270.10168 a 188.74576,187.66101 0 1 1 -377.49151,0 188.74576,187.66101 0 1 1 377.49151,0 z"
     transform="matrix(1.2023436,0,0,1.1498721,-101.36097,-53.497638)" /><path
     id="shuffle-2-icon"
     d="M 256,2.2711864 C 114.67084,2.2711864 0.10169537,116.35469 0.10169537,257.08474 0.10169537,397.81481 114.67084,511.89831 256,511.89831 c 141.32915,0 255.8983,-114.0835 255.8983,-254.81357 C 511.8983,116.35469 397.32915,2.2711864 256,2.2711864 Z M 110.40132,167.74539 h 24.85443 c 31.77362,0 62.5895,13.01404 84.82283,36.78345 -0.96521,1.42003 -18.56629,29.38767 -18.56629,29.38767 -15.55762,-20.83782 -39.85181,-33.0936 -66.25654,-33.0936 h -24.85443 z m 235.26495,205.96357 -0.072,-27.35535 h -8.94153 c -31.73761,0 -62.56962,-12.98807 -84.82409,-36.78345 0.96397,-1.4188 18.5663,-29.38272 18.5663,-29.38272 15.55886,20.83285 39.85306,33.09113 66.25779,33.09113 h 8.85457 v -29.9307 l 73.48257,45.66605 -73.32356,44.69504 z m -0.23602,-142.88733 0.0771,-29.9307 h -8.85457 c -28.6929,0 -54.89888,14.46376 -70.10619,38.69086 l -33.01834,52.60414 c -21.45819,34.18584 -58.87276,54.23695 -98.27241,54.23695 h -24.85447 v -33.07505 h 24.85443 c 28.69167,0 54.89888,-14.46377 70.10621,-38.69084 l 33.01834,-52.60168 c 21.45693,-34.18707 58.8715,-54.23942 98.27239,-54.23942 h 8.94153 l 0.072,-27.35287 73.32356,44.69504 z"
     style="fill:#0000ff;fill-opacity:1"
     inkscape:connector-curvature="0"
     sodipodi:nodetypes="ssssscsccsccccsccscccccccsccsccsccscccc" /></svg>