<?xml version="1.0" encoding="UTF-8" standalone="no"?>
<!-- License Agreement at http://iconmonstr.com/license/ -->

<svg
   xmlns:dc="http://purl.org/dc/elements/1.1/"
   xmlns:cc="http://creativecommons.org/ns#"
   xmlns:rdf="http://www.w3.org/1999/02/22-rdf-syntax-ns#"
   xmlns:svg="http://www.w3.org/2000/svg"
   xmlns="http://www.w3.org/2000/svg"
   xmlns:xlink="http://www.w3.org/1999/xlink"
   xmlns:sodipodi="http://sodipodi.sourceforge.net/DTD/sodipodi-0.dtd"
   xmlns:inkscape="http://www.inkscape.org/namespaces/inkscape"
   version="1.1"
   x="0px"
   y="0px"
   width="512px"
   height="512px"
   viewBox="0 0 512 512"
   enable-background="new 0 0 512 512"
   xml:space="preserve"
   id="svg5067"
   inkscape:version="0.92.3 (2405546, 2018-03-11)"
   sodipodi:docname="rang.svg"
   inkscape:export-filename="/home/crawford/Projects/Squirrel/images/rang36.png"
   inkscape:export-xdpi="6.328125"
   inkscape:export-ydpi="6.328125"><metadata
     id="metadata5074"><rdf:RDF><cc:Work
         rdf:about=""><dc:format>image/svg+xml</dc:format><dc:type
           rdf:resource="http://purl.org/dc/dcmitype/StillImage" /><dc:title /></cc:Work></rdf:RDF></metadata><defs
     id="defs5072"><linearGradient
       id="linearGradient5946"><stop
         style="stop-color:#ec8100;stop-opacity:0;"
         offset="0"
         id="stop5956" /><stop
         id="stop5958"
         offset="0.31999999"
         style="stop-color:#ec8100;stop-opacity:0.49803922;" /><stop
         style="stop-color:#ec8100;stop-opacity:1;"
         offset="1"
         id="stop5950" /></linearGradient><radialGradient
       inkscape:collect="always"
       xlink:href="#linearGradient5946"
       id="radialGradient5952"
       cx="258.71168"
       cy="261.86757"
       fx="258.71168"
       fy="261.86757"
       r="254.27111"
       gradientTransform="matrix(1,0,0,0.87166586,0,33.606549)"
       gradientUnits="userSpaceOnUse" /></defs><sodipodi:namedview
     pagecolor="#ffffff"
     bordercolor="#666666"
     borderopacity="1"
     objecttolerance="10"
     gridtolerance="10"
     guidetolerance="10"
     inkscape:pageopacity="0"
     inkscape:pageshadow="2"
     inkscape:window-width="1861"
     inkscape:window-height="1028"
     id="namedview5070"
     showgrid="false"
     inkscape:zoom="0.92187499"
     inkscape:cx="152.07331"
     inkscape:cy="227.49921"
     inkscape:window-x="59"
     inkscape:window-y="24"
     inkscape:window-maximized="1"
     inkscape:current-layer="svg5067" /><path
     id="bell-8-icon"
     d="m 319.2445,113.10055 c -12.41485,-6.90146 -20.101,-19.75758 -20.07755,-33.622672 v -0.06814 c 0,-21.640447 -18.11374,-39.181618 -40.45504,-39.181618 -22.34377,0 -40.45505,17.542367 -40.45505,39.181618 v 0.06814 c 0.0259,13.880634 -7.64664,26.714032 -20.07631,33.622672 -90.07249,50.07476 -38.31596,216.371 -132.430862,245.7605 v 38.8433 H 451.67413 v -38.8433 C 357.55922,329.46915 409.31823,163.17412 319.2445,113.10055 Z M 258.71191,63.513535 c 9.05131,0 16.41407,7.130995 16.41407,15.896201 0,8.765206 -7.36276,15.8962 -16.41407,15.8962 -9.04885,0 -16.41407,-7.130994 -16.41407,-15.8962 0,-8.765206 7.36522,-15.896201 16.41407,-15.896201 z m 55.72983,366.557045 c 0,29.51382 -24.7038,53.43643 -55.17562,53.43643 -30.47058,0 -55.17315,-23.9238 -55.17315,-53.43643 z M 438.05828,212.80059 c 4.16585,16.22495 1.15286,32.55272 -7.09491,45.83442 l 22.55731,13.13824 c 11.72116,-18.87054 16.00304,-42.07466 10.07951,-65.13174 -5.92847,-23.05947 -20.94528,-41.60365 -40.43159,-52.95346 l -13.56031,21.84726 c 13.70967,7.98814 24.27426,21.04032 28.44999,37.26528 z m 70.87871,-17.08929 c -9.04267,-35.18754 -31.95301,-63.48797 -61.68421,-80.80439 l -13.9084,22.39359 c 23.81633,13.87227 42.16706,36.54082 49.41008,64.7217 7.23932,28.18446 2.00579,56.53988 -12.31734,79.60413 l 23.12263,13.47059 c 17.87923,-28.80133 24.41991,-64.20046 15.37724,-99.38562 z M 107.81553,175.53531 94.255213,153.68805 c -19.486304,11.34981 -34.503117,29.89399 -40.431586,52.95346 -5.923532,23.05708 -1.641654,46.2612 10.079508,65.13174 L 86.460447,258.63501 C 78.21268,245.3545 75.199689,229.02554 79.365539,212.80059 83.541266,196.57563 94.105868,183.52345 107.81553,175.53531 Z M 23.862827,295.09692 46.98546,281.62633 C 32.661103,258.56208 27.426326,230.20666 34.666884,202.0222 41.911144,173.84251 60.261872,151.17277 84.078197,137.3005 L 70.169809,114.90691 c -29.73245,17.31522 -52.64031,45.61685 -61.6842193,80.80439 -9.04143877,35.18516 -2.5007446,70.58429 15.3772373,99.38562 z"
     style="fill:url(#radialGradient5952);fill-opacity:1"
     inkscape:connector-curvature="0"
     sodipodi:nodetypes="scsssccccccsssssscscccccccccccccccccccccccccccccc" /></svg>