<?xml version="1.0" encoding="UTF-8" standalone="no"?>
<svg
   xmlns:dc="http://purl.org/dc/elements/1.1/"
   xmlns:cc="http://creativecommons.org/ns#"
   xmlns:rdf="http://www.w3.org/1999/02/22-rdf-syntax-ns#"
   xmlns:svg="http://www.w3.org/2000/svg"
   xmlns="http://www.w3.org/2000/svg"
   xmlns:sodipodi="http://sodipodi.sourceforge.net/DTD/sodipodi-0.dtd"
   xmlns:inkscape="http://www.inkscape.org/namespaces/inkscape"
   height="310"
   version="1.1"
   width="310"
   id="svg71018"
   inkscape:version="0.92.3 (2405546, 2018-03-11)"
   sodipodi:docname="save.svg"
   inkscape:export-filename="/home/crawford/Projects/Squirrel/images/save16.png"
   inkscape:export-xdpi="4.6451612"
   inkscape:export-ydpi="4.6451612">
  <metadata
     id="metadata71048">
    <rdf:RDF>
      <cc:Work
         rdf:about="">
        <dc:format>image/svg+xml</dc:format>
        <dc:type
           rdf:resource="http://purl.org/dc/dcmitype/StillImage" />
        <dc:title />
      </cc:Work>
    </rdf:RDF>
  </metadata>
  <defs
     id="defs71046" />
  <sodipodi:namedview
     pagecolor="#ffffff"
     bordercolor="#666666"
     borderopacity="1"
     objecttolerance="10"
     gridtolerance="10"
     guidetolerance="10"
     inkscape:pageopacity="0"
     inkscape:pageshadow="2"
     inkscape:window-width="1626"
     inkscape:window-height="925"
     id="namedview71044"
     showgrid="false"
     inkscape:zoom="0.86915209"
     inkscape:cx="12"
     inkscape:cy="148.90924"
     inkscape:window-x="59"
     inkscape:window-y="24"
     inkscape:window-maximized="0"
     inkscape:current-layer="svg71018" />
  <g
     transform="matrix(16.212782,0,0,16.340601,-38.73507,-16844.278)"
     id="g71020">
    <path
       d="m 3,1037.4 v 2 2 6 c 0,1.1 0.8954,2 2,2 h 14 c 1.105,0 2,-0.9 2,-2 v -6 -2 -2 H 3 z"
       id="path71022"
       inkscape:connector-curvature="0"
       style="fill:#2980b9" />
    <path
       d="M 5,3 C 3.8954,3 3,3.8954 3,5 c 0,4.3333333 0,8.666667 0,13 0,1.105 0.8954,2 2,2 h 14 c 1.105,0 2,-0.895 2,-2 0,-3.666667 0,-7.333333 0,-11 V 6 L 18,3 h -1 -2 z"
       transform="translate(0,1028.4)"
       id="path71024"
       inkscape:connector-curvature="0"
       style="fill:#3498db"
       sodipodi:nodetypes="sccssccccccs" />
    <path
       d="m 6,3 v 1 1 2 c 0,1.1046 0.8954,2 2,2 h 1 4 2 1 c 1.105,0 2,-0.8954 2,-2 V 5.1562 5 4 3 H 6 z"
       transform="translate(0,1028.4)"
       id="path71026"
       inkscape:connector-curvature="0"
       style="fill:#2980b9" />
    <path
       d="m 8,1041.4 c -1.1046,0 -2,0.9 -2,2 v 1.8 3.2 h 12 v -3.2 -1.8 c 0,-1.1 -0.895,-2 -2,-2 H 13 8 z"
       id="path71028"
       inkscape:connector-curvature="0"
       style="fill:#ecf0f1" />
    <rect
       height="1"
       width="12"
       x="6"
       y="1048.4"
       id="rect71030"
       style="fill:#bdc3c7" />
    <path
       d="m 7,1031.4 v 1 2 c 0,1.1 0.8954,2 2,2 h 1 4 1 c 1.105,0 2,-0.9 2,-2 v -1.9 -0.1 -1 H 7 z"
       id="path71032"
       inkscape:connector-curvature="0"
       style="fill:#ecf0f1" />
    <path
       d="m 8,4 v 2 c 0,0.5523 0.4477,1 1,1 h 1 1 c 0.552,0 1,-0.4477 1,-1 V 4 H 10 8 z"
       transform="translate(0,1028.4)"
       id="path71034"
       inkscape:connector-curvature="0"
       style="fill:#95a5a6" />
    <g
       id="g71036"
       style="fill:#bdc3c7">
      <rect
         height="1"
         transform="translate(0,1028.4)"
         width="8"
         x="8"
         y="15"
         id="rect71038" />
      <rect
         height="1"
         width="8"
         x="8"
         y="1045.4"
         id="rect71040" />
      <rect
         height="1"
         width="4"
         x="8"
         y="1031.4"
         id="rect71042" />
    </g>
  </g>
</svg>
