<?xml version="1.0" encoding="UTF-8" standalone="no"?>
<!-- Generator: Adobe Illustrator 16.0.0, SVG Export Plug-In . SVG Version: 6.00 Build 0)  -->

<svg
   xmlns:dc="http://purl.org/dc/elements/1.1/"
   xmlns:cc="http://creativecommons.org/ns#"
   xmlns:rdf="http://www.w3.org/1999/02/22-rdf-syntax-ns#"
   xmlns:svg="http://www.w3.org/2000/svg"
   xmlns="http://www.w3.org/2000/svg"
   xmlns:sodipodi="http://sodipodi.sourceforge.net/DTD/sodipodi-0.dtd"
   xmlns:inkscape="http://www.inkscape.org/namespaces/inkscape"
   version="1.1"
   x="0px"
   y="0px"
   width="8.9713163"
   height="8.9713163"
   viewBox="0 0 8.9713163 8.9713163"
   xml:space="preserve"
   id="svg5"
   sodipodi:docname="search.svg"
   inkscape:version="0.92.3 (2405546, 2018-03-11)"><metadata
     id="metadata11"><rdf:RDF><cc:Work
         rdf:about=""><dc:format>image/svg+xml</dc:format><dc:type
           rdf:resource="http://purl.org/dc/dcmitype/StillImage" /><dc:title /></cc:Work></rdf:RDF></metadata><defs
     id="defs9" /><sodipodi:namedview
     pagecolor="#ffffff"
     bordercolor="#666666"
     borderopacity="1"
     objecttolerance="10"
     gridtolerance="10"
     guidetolerance="10"
     inkscape:pageopacity="0"
     inkscape:pageshadow="2"
     inkscape:window-width="1392"
     inkscape:window-height="955"
     id="namedview7"
     showgrid="false"
     fit-margin-top="0"
     fit-margin-left="0"
     fit-margin-right="0"
     fit-margin-bottom="0"
     inkscape:zoom="27.812867"
     inkscape:cx="4.834"
     inkscape:cy="4.9713166"
     inkscape:window-x="59"
     inkscape:window-y="24"
     inkscape:window-maximized="0"
     inkscape:current-layer="svg5" /><g
     id="Icons"
     style="opacity:0.75"
     transform="translate(-7.166,-8)"><path
       id="search"
       d="m 16.021,15.96 -2.374,-2.375 c -0.048,-0.047 -0.105,-0.079 -0.169,-0.099 0.403,-0.566 0.643,-1.26 0.643,-2.009 C 14.12,9.557 12.563,8 10.644,8 8.723,8 7.166,9.557 7.166,11.478 c 0,1.92 1.557,3.477 3.478,3.477 0.749,0 1.442,-0.239 2.01,-0.643 0.019,0.063 0.051,0.121 0.098,0.169 l 2.375,2.374 c 0.19,0.189 0.543,0.143 0.79,-0.104 0.247,-0.247 0.293,-0.601 0.104,-0.791 z m -5.377,-2.27 c -1.221,0 -2.213,-0.991 -2.213,-2.213 0,-1.221 0.992,-2.213 2.213,-2.213 1.222,0 2.213,0.992 2.213,2.213 -10e-4,1.222 -0.992,2.213 -2.213,2.213 z"
       inkscape:connector-curvature="0"
       sodipodi:nodetypes="ccccssscccscssscs" /></g><g
     id="Guides"
     transform="translate(-7.166,-8)" /></svg>