<?xml version="1.0" encoding="UTF-8" standalone="no"?>
<!-- Created with Inkscape (http://www.inkscape.org/) -->

<svg
   xmlns:dc="http://purl.org/dc/elements/1.1/"
   xmlns:cc="http://creativecommons.org/ns#"
   xmlns:rdf="http://www.w3.org/1999/02/22-rdf-syntax-ns#"
   xmlns:svg="http://www.w3.org/2000/svg"
   xmlns="http://www.w3.org/2000/svg"
   xmlns:xlink="http://www.w3.org/1999/xlink"
   xmlns:sodipodi="http://sodipodi.sourceforge.net/DTD/sodipodi-0.dtd"
   xmlns:inkscape="http://www.inkscape.org/namespaces/inkscape"
   width="310"
   height="310"
   id="svg2"
   version="1.1"
   inkscape:version="0.92.5 (2060ec1f9f, 2020-04-08)"
   sodipodi:docname="squirrel.svg"
   inkscape:export-filename="/home/crawford/Projects/Squirrel/images/squirrel300.png"
   inkscape:export-xdpi="87.096771"
   inkscape:export-ydpi="87.096771">
  <defs
     id="defs4">
    <linearGradient
       id="linearGradient3767">
      <stop
         style="stop-color:#f3843e;stop-opacity:1;"
         offset="0"
         id="stop3769" />
      <stop
         style="stop-color:#393939;stop-opacity:1;"
         offset="1"
         id="stop3771" />
    </linearGradient>
    <linearGradient
       inkscape:collect="always"
       xlink:href="#linearGradient3767"
       id="linearGradient871"
       x1="139.09996"
       y1="777.94513"
       x2="212.69699"
       y2="1043.084"
       gradientUnits="userSpaceOnUse"
       gradientTransform="translate(0,-742.36218)" />
  </defs>
  <sodipodi:namedview
     id="base"
     pagecolor="#ffffff"
     bordercolor="#666666"
     borderopacity="1.0"
     inkscape:pageopacity="0.0"
     inkscape:pageshadow="2"
     inkscape:zoom="1.6217923"
     inkscape:cx="240.85545"
     inkscape:cy="268.57886"
     inkscape:document-units="px"
     inkscape:current-layer="layer1"
     showgrid="false"
     inkscape:window-width="1856"
     inkscape:window-height="1019"
     inkscape:window-x="64"
     inkscape:window-y="24"
     inkscape:window-maximized="1"
     objecttolerance="3" />
  <metadata
     id="metadata7">
    <rdf:RDF>
      <cc:Work
         rdf:about="">
        <dc:format>image/svg+xml</dc:format>
        <dc:type
           rdf:resource="http://purl.org/dc/dcmitype/StillImage" />
        <dc:title />
      </cc:Work>
    </rdf:RDF>
  </metadata>
  <g
     inkscape:label="Layer 1"
     inkscape:groupmode="layer"
     id="layer1"
     transform="translate(0,-742.36218)">
    <path
       style="fill:url(#linearGradient871);fill-opacity:1;stroke-width:1.03198349"
       d="m 42.574219,22.607422 c -0.118278,-0.0768 -0.179252,0.2403 -0.199219,0.96875 -0.02458,0.89741 1.872143,5.455676 4.214844,10.128906 2.342701,4.67322 4.103709,8.662171 3.912109,8.863281 -0.436309,0.45798 -8.205078,-11.957931 -8.205078,-13.113281 8e-6,-0.4659 -0.175785,-0.66302 -0.390625,-0.4375 -0.214839,0.2255 0.309969,2.546453 1.166016,5.158203 0.856047,2.61177 1.554687,4.959094 1.554687,5.214844 0,0.25576 -2.860827,-2.463819 -6.357422,-6.042969 -6.344372,-6.49415 -6.347143,-6.496926 -2.228515,-1.378906 2.269907,2.8207 3.992681,5.260435 3.830078,5.421875 -0.162602,0.16144 -2.909963,-1.320409 -6.105469,-3.292969 -6.542355,-4.03854 -8.767455,-4.680942 -4.681641,-1.351562 4.492712,3.66097 9.775845,9.147728 8.828125,9.167968 -0.487559,0.0103 -3.984325,-2.111573 -7.771484,-4.714843 -3.787159,-2.60326 -7.411526,-5.06607 -8.052734,-5.47461 -2.023604,-1.2893 3.934637,6.082674 6.714843,8.308594 4.077428,3.26451 2.521273,3.199165 -3.158203,-0.134765 -2.810836,-1.65 -5.111328,-2.804754 -5.111328,-2.564454 0,0.24032 2.36262,2.176725 5.248047,4.302735 2.885434,2.12601 5.392197,3.980883 5.570312,4.121093 0.178126,0.140201 0.150899,0.434407 -0.05859,0.654297 -0.209492,0.2199 -3.288154,-1.076979 -6.841797,-2.880859 -3.55365,-1.80388 -6.597535,-3.135414 -6.765625,-2.958984 -0.168082,0.17643 2.024211,1.914981 4.873047,3.863281 5.719649,3.91162 5.688005,4.987404 -0.07031,2.396484 -2.050808,-0.92274 -3.853337,-1.544865 -4.005859,-1.384765 -0.152522,0.1601 1.360089,1.522177 3.359375,3.029296 5.215808,3.93179 2.707741,4.007226 -3.470703,0.103516 -6.753106,-4.26682 -9.4472687,-5.206379 -4.425782,-1.542969 3.790183,2.76512 6.524117,5.501954 5.496094,5.501953 -0.278277,0 -2.593848,-1.106404 -5.146484,-2.458984 -2.552644,-1.35258 -4.6425783,-2.275994 -4.6425782,-2.052734 0,0.22324 1.6628682,1.299038 3.6933592,2.392578 8.780938,4.72903 8.720021,6.766304 -0.07617,2.558594 -3.2716822,-1.56503 -5.9492185,-2.741022 -5.9492185,-2.613282 0,0.12776 2.2741755,1.812661 5.0527345,3.744141 2.778566,1.93148 5.052734,3.81569 5.052734,4.1875 8e-6,0.37181 -2.542507,-0.540674 -5.65039,-2.027344 -8.6774836,-4.15092 -12.42634875,-4.546334 -4.6484379,-0.490234 8.2159999,4.28455 8.4344309,6.298849 0.34375,3.167969 -2.6230522,-1.01505 -1.387353,0.535197 1.3886719,1.742187 2.880662,1.2525 3.156824,2.737073 0.296875,1.595703 -1.1279659,-0.45019 -2.1997225,-0.658997 -2.3828125,-0.466797 -0.1830901,0.19218 0.8863512,0.77074 2.3769531,1.28711 3.3977014,1.17706 5.3461754,3.302734 3.0273434,3.302734 -0.853537,0 -3.0806716,-0.547677 -4.9511715,-1.216797 -3.0485265,-1.09054 -3.2413313,-1.088314 -1.8613281,0.02344 0.8467361,0.68213 2.8575234,1.655389 4.46875,2.162109 2.8326846,0.89085 3.9972536,2.294922 1.9042966,2.294922 -0.563252,0 -3.6138992,-0.713607 -6.7792966,-1.585937 -3.1654051,-0.872332 -5.86190967,-1.474621 -5.9921875,-1.337891 -0.1302545,0.13674 2.4820606,1.253149 5.8066406,2.480469 8.7722875,3.23838 8.9069165,3.999275 0.6054687,3.453125 L -1.6171875,72.222656 4.40625,74.244141 c 6.474223,2.17352 8.165336,4.06014 2.9140625,3.25 -1.7098871,-0.2638 -4.5934013,-0.661353 -6.41015625,-0.882813 L -2.3945312,76.208984 1.8496094,77.84375 c 6.3736739,2.45558 6.7861558,3.507654 1.1972656,3.058594 l -4.6640625,-0.375 3.109375,1.447265 c 1.7098949,0.79521 3.7009812,1.47258 4.4238281,1.50586 0.722847,0.0333 1.5287757,0.428243 1.7929688,0.876953 0.2973416,0.505 -1.2384936,0.846554 -4.0332032,0.896484 l -4.51562495,0.08008 3.41796875,1.125 c 5.3031837,1.7474 4.8766042,2.136357 -2.02148438,1.841797 -3.56520002,-0.15224 -6.08116782,0.03707 -5.70507812,0.429688 0.3699807,0.38622 2.99495,0.66385 5.83398438,0.61914 2.83902652,-0.0447 4.98029762,0.232082 4.75585932,0.613282 -0.2244381,0.38119 -2.5492643,1.32363 -5.16406245,2.09375 -2.61479045,0.77013 -4.57721695,1.583935 -4.36132815,1.810547 0.2158966,0.226619 2.8470509,-0.316282 5.8457032,-1.207032 2.9986522,-0.89075 5.6517839,-1.409203 5.8964843,-1.152344 0.2447081,0.256861 -1.5663165,1.679217 -4.0253906,3.160157 -2.4590741,1.48094 -4.18533507,2.703247 -3.83398438,2.716797 0.35135072,0.0136 2.18482228,-0.924888 4.07226568,-2.085938 5.265667,-3.23919 5.6755017,-1.951114 0.7773437,2.441406 -4.87963687,4.375894 -5.32172957,5.780684 -0.8066406,2.564454 4.336771,-3.089234 4.9721122,-2.523684 1.5,1.33398 -2.5123293,2.79131 -2.6833313,3.16034 -0.9355469,2.02149 2.8712112,-1.87087 2.6925667,-1.00923 -0.6933594,3.32812 l -2.83203122,3.62695 3.29492182,-1.76367 c 1.8127213,-0.97072 3.5255094,-1.5243 3.8046876,-1.23047 0.4807269,0.50594 -0.2161179,1.24265 -5.7734376,6.11524 -3.7988561,3.3308 -4.0457504,4.68317 -0.3320312,1.8164 4.4627664,-3.445 5.4285153,-3.35587 2.4335938,0.22461 -2.4545817,2.9345 -5.09840853,7.65358 -4.58789068,8.18946 0.15673447,0.16453 1.84276638,-1.7534 3.74804688,-4.26172 4.0700753,-5.35827 4.9810681,-4.25727 1.9179688,2.31836 l -2.0273438,4.34765 3.1230469,-3.66992 c 3.5306681,-4.14966 3.6492591,-3.8439 1.9960937,5.22461 -1.317911,7.22942 -1.1097317,8.99069 0.3964844,3.34375 1.171397,-4.39167 2.327236,-5.51718 2.351562,-2.29297 l 0.01563,2.29102 1.425781,-1.94531 c 1.417473,-1.93495 1.423126,-1.91437 1.341797,4.24023 -0.04495,3.40211 0.26784,6.55625 0.695312,7.00781 0.518492,0.5477 0.691701,-1.06851 0.519531,-4.85351 -0.148178,-3.25766 0.05729,-5.67383 0.484375,-5.67383 0.788709,0 1.716797,3.80177 1.716797,7.03711 0,1.06567 0.349873,1.9375 0.777344,1.9375 0.427472,0 0.777344,-0.8969 0.777344,-1.99219 0,-1.09529 0.403705,-2.25328 0.898437,-2.57422 0.92522,-0.60023 0.556005,4.82257 -0.564453,8.27344 -0.284797,0.87713 0.457967,0.14071 1.654297,-1.63672 2.743343,-4.07591 3.144632,-2.94275 1.130859,3.20117 -0.862809,2.63239 -1.462247,4.89848 -1.332031,5.03516 0.130208,0.13668 1.267165,-1.75866 2.527344,-4.21094 1.260179,-2.45227 2.552443,-4.45931 2.873047,-4.46094 1.103701,-0.006 0.547886,4.49019 -1.009766,8.1543 l -1.560547,3.67188 3.191406,-3.875 c 3.374107,-4.09543 5.672736,-5.28387 3.550782,-1.83594 -3.539668,5.75154 -3.840609,6.60946 -1.28711,3.67187 l 2.482422,-2.85547 -0.501953,2.40235 -0.5,2.40234 1.582031,-1.99414 c 1.988467,-2.50787 2.253805,-0.46267 0.326172,2.51367 -1.29025,1.99219 -1.286738,1.99989 0.25586,0.58985 2.239579,-2.04714 2.848055,-1.75871 1.351562,0.63867 -0.708966,1.13578 -1.094428,2.2688 -0.857422,2.51758 0.237006,0.24879 0.826998,-0.32502 1.310547,-1.27344 0.483556,-0.94841 1.208823,-1.50847 1.613281,-1.24609 0.430107,0.27904 0.2127,1.53505 -0.523437,3.02929 -0.969918,1.96879 -1.05935,2.89289 -0.386719,4.02344 1.228647,2.06512 1.093591,2.48857 -0.613281,1.91992 -1.46364,-0.48762 -1.46364,-0.44902 0,2.56446 2.371808,4.88328 1.55764,7.20828 -1.166016,3.32812 -0.708671,-1.0096 -0.394715,-0.14124 0.697266,1.93164 1.091972,2.07287 1.780137,4.32948 1.529297,5.01563 -0.250841,0.68617 -0.08357,1.49087 0.373047,1.78711 0.45661,0.29623 0.830078,0.9528 0.830078,1.45898 7e-6,0.50617 -1.135701,-0.15671 -2.523438,-1.47461 -2.418915,-2.2972 -2.443501,-2.30403 -0.642578,-0.15625 2.253631,2.68768 1.645806,3.80789 -1.056641,1.94922 -3.193991,-2.19675 -3.055923,-1.57664 0.794922,3.56836 3.933167,5.25501 4.365442,7.26488 0.699219,3.24804 -1.224364,-1.34144 -2.574481,-2.43945 -3.001953,-2.43945 -0.427471,0 0.224855,1.09802 1.449219,2.43945 1.224357,1.34146 1.953232,2.71739 1.621093,3.0586 -0.332143,0.34121 -1.792642,-0.8168 -3.246093,-2.57422 -1.453451,-1.75742 -2.642578,-2.81967 -2.642578,-2.35938 0,0.46029 1.399496,2.50393 3.109375,4.54297 4.217942,5.02988 3.930587,5.85473 -0.482422,1.38477 -2.095529,-2.12257 -3.225308,-2.89237 -2.714844,-1.84766 0.4811,0.98461 1.221305,2.01714 1.646484,2.29297 1.127414,0.73141 0.947176,2.22051 -0.199218,1.64649 -0.534332,-0.26757 -0.328071,-0.0152 0.457031,0.5625 0.785103,0.57761 2.008377,1.4797 2.71875,2.0039 2.153758,1.58929 0.444565,2.11688 -2.203125,0.67969 -4.075765,-2.21236 -3.490288,-0.79513 0.822266,1.99023 4.704754,3.03866 4.673747,4.20657 -0.04492,1.67969 -1.792739,-0.96002 -3.380387,-1.6191 -3.527344,-1.46484 -0.146957,0.15427 1.637151,1.3273 3.96289,2.60547 2.325742,1.27818 4.226563,2.64536 4.226563,3.03906 0,1.03074 -0.436389,0.90983 -3.283203,-0.91211 -1.399613,-0.89574 -3.069731,-1.62713 -3.710938,-1.62305 -0.6412,0.004 0.931263,1.23325 3.496094,2.73242 2.821213,1.64906 4.667989,3.26998 4.671875,4.10352 0.0037,0.75779 0.519038,1.70946 1.144531,2.11524 0.966125,0.62675 0.932624,0.82059 -0.220703,1.28515 -0.852371,0.34334 -2.507437,-0.25212 -4.447265,-1.59961 -3.574698,-2.48315 -4.047748,-2.11298 -0.953125,0.7461 1.494162,1.38042 1.775751,1.98197 0.933593,2 -0.662581,0.0142 -1.679093,-0.43328 -2.257812,-0.99414 -0.578719,-0.5609 -0.386094,-0.0107 0.427734,1.22265 0.813829,1.23336 2.353195,2.45828 3.421875,2.7207 1.068679,0.26242 2.468176,0.66926 3.109375,0.9043 2.358028,0.86435 -1.717983,1.59863 -5.365234,0.9668 -4.819838,-0.83497 -6.467048,-0.7387 -3.378906,0.19726 2.766745,0.83855 3.29578,2.02126 1.166015,2.60547 -0.748068,0.2052 -0.267481,0.41476 1.06836,0.4668 3.921432,0.1528 7.294704,1.05363 6.839843,1.82617 -0.232024,0.39408 -1.061719,0.7168 -1.845703,0.7168 -0.783983,0 -1.64352,0.59237 -1.908203,1.3164 -0.408593,1.11767 -0.05644,1.23092 2.326172,0.76172 3.07475,-0.60548 3.106524,0.74119 0.04687,1.97071 -1.598589,0.6424 -1.578171,0.69438 0.46875,1.2539 2.817389,0.77012 2.817381,2.38557 0,1.67969 -1.954805,-0.48977 -1.839381,-0.25182 1.359375,2.77344 3.023057,2.85907 3.234161,3.25273 1.554688,2.90234 9.64405,9.43747 14.290427,22.84047 22.208984,31.07227 -0.207207,0.2113 -0.400878,0.4172 -0.609375,0.6289 17.650449,12.0476 30.733475,20.01037 56.763672,17.73047 9.62897,-0.8436 6.68306,-2.11281 9.38672,0.52539 4.53005,4.4203 7.50746,5.69551 31.59375,3.69532 9.48467,-0.78761 28.46683,0.15066 42.18359,0.13476 22.44302,-0.025 25.18107,-1.80286 27.35156,-3.41406 1.7729,-1.3163 2.21309,-2.36785 1.66016,-3.96485 -1.77432,-5.1253 -13.6322,-11.46175 -28.70703,-9.68945 -13.34703,1.5694 -16.88218,-7.08592 -8.02539,-15.4668 -0.21625,-0.27519 -0.42556,-0.53398 -0.64063,-0.80664 2.33595,-5.1248 3.6276,-11.73457 4.625,-23.31445 1.07524,-12.4836 1.87393,-17.07439 3.74024,-21.48242 2.02712,-4.78782 5.56459,-9.03624 6.61133,-7.9375 1.21458,1.27492 13.27487,1.05338 21.20312,-0.39063 3.79637,-0.69145 14.3238,-3.8879 23.39453,-7.10156 l 16.49219,-5.8418 1.88867,1.86133 c 1.21031,1.19351 2.08148,3.21683 2.42774,5.64063 2.24891,15.74177 12.01781,18.61536 22.26953,6.54883 2.79718,-3.29236 2.84071,-3.3107 3.75195,-1.52344 0.7641,1.49866 0.68056,2.08959 -0.48828,3.44531 -1.38357,1.60478 -1.36809,1.63071 0.83203,1.35938 1.30127,-0.16048 2.87832,-1.17148 3.75391,-2.40821 1.77969,-2.51375 3.89195,-12.26532 3.24414,-14.97461 -0.24849,-1.03927 -0.0734,-2.13185 0.38867,-2.43164 1.39993,-0.90818 0.97581,-8.39712 -0.66797,-11.77929 -1.08809,-2.23877 -2.70927,-3.76562 -5.80469,-5.4668 l -4.29492,-2.35938 2.75,-2.95898 c 2.34246,-2.51807 2.55553,-3.03558 1.43164,-3.48828 -1.64135,-0.66114 -3.01114,0.48596 -4.20898,3.52148 l -0.92383,2.33789 -6.08008,-0.4375 c -5.15494,-0.37087 -6.59937,-0.17302 -9.48437,1.29297 -2.97207,1.51023 -3.9733,1.63 -7.92383,0.95508 -4.6002,-0.7859 -9.95239,-3.51909 -12.24414,-6.25391 -2.27709,-2.71732 -2.4258,-4.84961 -0.50586,-7.1875 1.59252,-1.93921 2.56861,-2.24286 9.40429,-2.91992 8.23425,-0.81557 9.08204,-1.08388 9.08204,-2.875 0,-0.93794 1.43729,-1.17578 7.11132,-1.17578 7.39939,0 8.02919,-0.19316 19.3125,-5.96094 3.25705,-1.66493 3.51695,-2.03214 3.74219,-5.31836 0.19151,-2.79421 -0.1821,-4.11122 -1.79297,-6.32812 -1.11891,-1.53982 -2.70201,-4.83592 -3.51758,-7.32422 -3.80652,-11.61348 -11.65686,-25.113026 -17.61914,-30.298826 -5.8862,-5.11964 -15.05666,-11.395425 -20.70898,-14.171875 -4.80273,-2.35912 -5.18164,-2.735354 -5.18164,-5.152344 0,-3.52148 -2.05913,-11.593859 -3.70117,-14.511719 -0.29243,-0.519631 -1.45612,-6.885985 -1.78533,-7.270631 0.36099,-2.532087 1.00585,-3.119814 1.11585,-6.160399 0.12146,-2.60557 0.46641,-6.428718 0.20073,-8.024048 l -0.48243,-2.90039 -0.1289,2.826172 c -1.6524,14.133373 -1.65134,10.620334 -2.45313,2.828124 -0.48962,-4.75849 -0.50215,-4.713698 -0.49609,1.644532 0.004,4.48483 -0.27068,6.503097 -0.875,6.429687 -0.48448,-0.0589 -0.57803,0.051 -0.875,-0.390625 0.003,-0.15597 -0.39836,-2.378513 -0.89258,-4.939453 l -0.89844,-4.65625 -0.0449,6.53125 c -0.0245,3.5921 0.89315,5.436158 0.71968,5.415088 -0.0138,3.02099 -2.51466,8.838501 -3.78608,10.926709 l -2.16407,3.59375 -3.96679,-4.439453 c -1.79231,-2.005762 -3.19985,-5.365082 -4.37891,-6.158203 -0.36516,-3.116683 1.52252,-9.205858 2.38477,-12.789063 0.44618,-1.818945 0.5743,-2.72851 0.43359,-2.804687 -0.23452,-0.126963 -1.21388,2.060125 -2.70117,6.207031 -1.1623,3.24077 -2.23928,5.839691 -2.39453,5.775391 -0.15526,-0.06433 -0.0331,-3.01749 0.27148,-6.5625 0.55261,-6.43221 0.55081,-6.42776 -0.81055,2.263672 -0.59736,3.813735 -1.15158,6.922581 -1.40234,7.933593 -0.0584,0.05281 -0.1173,0.110542 -0.17578,0.167969 -0.12625,-0.442375 -0.5261,-2.566174 -0.95313,-5.101562 -0.4534,-2.69237 -0.99546,-4.97266 -1.20507,-5.06836 -0.20952,-0.09572 -0.24136,0.158456 -0.0703,0.566406 0.32384,0.772357 1.13211,11.031901 0.95247,14.986703 -0.88464,2.57374 -2.0725,6.296524 -2.07551,11.218375 -0.005,7.633241 0.0964,7.483379 -8.23242,12.136719 -3.02958,1.69262 -7.81649,5.033035 -10.63672,7.421875 -7.24809,6.13944 -10.63823,7.754656 -17.39454,8.291016 -5.67923,0.450856 -5.7292,0.475516 -4.36718,2.093746 1.3488,1.60254 1.32743,1.62743 -0.95508,1.16211 -1.28241,-0.26143 -2.9463,-0.72552 -3.69922,-1.03125 -1.04247,-0.42332 -1.25464,-0.24326 -0.88867,0.75781 0.26431,0.72303 0.29565,1.31641 0.0703,1.31641 -0.22528,0 -4.54653,-1.24777 -9.60351,-2.77148 C 154.28668,95.957732 143.30939,95.393122 129.73438,99.013672 111.71744,103.8189 99.125281,116.16732 86.160156,141.75 c -7.790588,15.37234 -9.001911,36.90878 -3.863281,68.64844 1.016652,6.27951 1.67643,11.5983 1.466797,11.81836 -0.853311,0.8957 -3.491536,-4.02509 -5.242188,-9.77539 -3.413805,-11.21319 -5.621312,-33.08544 -4.314453,-42.75782 1.650453,-12.21529 9.224737,-31.30044 17.294922,-43.58398 2.161865,-3.29056 7.625297,-9.65035 12.142577,-14.13281 5.62049,-5.57754 7.39335,-7.72611 5.61524,-6.80664 -4.07892,2.10924 -3.95705,0.63394 0.27734,-3.35352 l 3.875,-3.65039 -3.30273,1.683594 c -1.81678,0.925266 -3.30469,1.445326 -3.30469,1.156246 0,-0.28908 1.57443,-1.978486 3.49804,-3.755856 4.21296,-3.89262 4.60327,-5.462543 0.65821,-2.652343 -3.97788,2.83357 -4.23535,1.786018 -0.56446,-2.294922 4.6131,-5.12838 5.85384,-7.133718 2.76172,-4.460938 -3.89043,3.36285 -4.29331,2.729652 -1.5625,-2.455078 l 2.47071,-4.691406 -2.46485,2.396484 c -2.18844,2.12809 -2.46484,2.216455 -2.46484,0.796875 1e-5,-0.87913 1.10885,-3.05886 2.46484,-4.84375 l 2.4668,-3.24414 -3.54102,3.542968 c -4.06815,4.07175 -5.76621,3.331919 -2.18359,-0.951172 3.02612,-3.617739 3.04323,-4.820076 0.0254,-1.785156 -3.72563,3.74671 -3.51986,1.814763 0.33594,-3.154297 1.94813,-2.51061 3.54101,-4.788076 3.54101,-5.060547 0,-0.272479 -1.76154,1.053826 -3.91601,2.947266 -2.15447,1.89344 -4.16526,3.178469 -4.46875,2.855469 -0.30349,-0.32297 0.7583,-1.745609 2.36133,-3.162109 1.60305,-1.41649 2.91409,-2.919364 2.91406,-3.339844 -1e-5,-0.42048 -1.04432,0.287075 -2.32227,1.572265 -3.28467,3.30326 -3.76221,1.975814 -0.93164,-2.591797 1.31972,-2.129589 2.23531,-4.045749 2.03516,-4.255859 -0.20016,-0.2101 -1.75499,1.046446 -3.45703,2.791016 -3.30301,3.38553 -3.80094,2.929525 -1.92969,-1.771485 1.87271,-4.70468 1.27433,-5.126306 -0.98242,-0.691406 -1.698092,3.33703 -2.123446,3.757281 -2.341799,2.300781 -0.146802,-0.97921 0.278171,-2.88993 0.945309,-4.24414 0.66715,-1.35421 1.19764,-2.756425 1.17774,-3.115235 -0.0199,-0.35881 -0.91984,1.127485 -1.998049,3.302735 -2.390546,4.8228 -3.179334,4.491095 -1.519531,-0.640625 1.627533,-5.03192 1.490243,-5.617034 -0.423828,-1.808594 -0.866959,1.725 -1.770115,2.931141 -2.007813,2.681641 -0.612209,-0.64263 1.196841,-7.868908 2.580079,-10.304688 0.63704,-1.12176 -0.426712,-0.204477 -2.365235,2.039063 -3.692182,4.27314 -4.046216,4.22558 -2.792969,-0.361328 1.208097,-4.421661 0.30987,-3.854854 -1.136718,0.716796 -0.719116,2.27261 -1.644147,4.13086 -2.056641,4.13086 -0.910562,0 -0.138314,-5.001825 1.373047,-8.896485 1.723519,-4.44137 0.636359,-3.843012 -1.623047,0.892579 L 87.291016,53.763672 87.720703,50.5 c 0.236726,-1.79483 0.600071,-4.180974 0.806641,-5.302734 0.20657,-1.12177 -0.347765,0.254163 -1.232422,3.058593 -0.884657,2.80443 -1.966245,5.09961 -2.402344,5.09961 -0.436114,0 -0.604281,-0.513455 -0.375,-1.140625 0.906178,-2.47877 1.329585,-12.460812 0.626953,-14.769532 -0.654078,-2.149188 -0.75382,-1.832962 -0.8125,2.585938 -0.102935,7.75421 -1.035045,8.96784 -2.089843,2.71875 -0.598393,-3.54517 -0.926814,-4.424934 -0.990235,-2.652344 -0.05219,1.4583 -0.443615,2.652344 -0.871094,2.652344 -0.427472,0 -0.817435,-1.194044 -0.865234,-2.652344 -0.07118,-2.17095 -0.220862,-1.912185 -0.824219,1.427735 -1.036425,5.73722 -2.181656,6.539883 -2.267578,1.589843 l -0.07031,-4.037109 -0.861328,2.855469 -0.863282,2.855468 -0.447265,-3.671874 -0.447266,-3.671876 -0.619141,4.691407 c -0.340376,2.58006 -0.943125,4.691406 -1.339843,4.691406 -0.396709,0 -0.777309,-2.477079 -0.845703,-5.505859 -0.06841,-3.02878 -0.267068,-4.292171 -0.441407,-2.806641 -0.403844,3.44101 -1.992485,3.002778 -2.634765,-0.726563 -0.323231,-1.8768 -0.515201,-2.173189 -0.583985,-0.90625 -0.175295,3.227491 -1.652704,1.061472 -1.734375,-2.542968 -0.04261,-1.88052 -0.373695,-4.337205 -0.738281,-5.458985 l -0.664063,-2.041015 0.04883,2.041015 c 0.160084,6.63947 -0.977629,7.764518 -2.265625,2.242188 -0.78654,-3.37234 -0.795876,-3.337951 -0.390625,1.224609 0.285847,3.21824 0.137864,4.691406 -0.46875,4.691406 -0.486323,0 -0.888314,-0.09291 -0.894532,-0.205078 -0.0065,-0.11217 -0.546103,-1.671967 -1.199218,-3.466796 l -1.189453,-3.263672 0.367187,4.691406 c 0.201168,2.58007 0.222987,4.691406 0.04883,4.691406 -0.17416,0 -1.070216,-1.554192 -1.992187,-3.451172 -2.095404,-4.31138 -5.4898,-9.731389 -5.853516,-9.349609 -0.15047,0.15794 0.620597,2.593486 1.710938,5.410156 1.090347,2.81666 1.875337,5.652848 1.746093,6.304688 -0.217319,1.09605 -9.975065,-12.476859 -10.949219,-15.230469 -0.115968,-0.3278 -0.206383,-0.51639 -0.277343,-0.5625 z m 6.779297,58.503906 c 0.544187,-0.0703 0.545877,0.456341 -0.478516,1.644531 -1.425463,1.65338 -1.42048,1.65861 0.707031,0.5 2.133636,-1.16193 4.794956,-0.980507 5.597657,0.382813 0.232303,0.39454 -0.158419,0.71875 -0.869141,0.71875 -0.993577,0 -0.737528,0.665462 1.117187,2.882812 2.222977,2.65761 3.427769,6.844841 1.634766,5.681641 -0.427464,-0.27731 -0.787257,0.160926 -0.800781,0.972656 -0.01979,1.18903 -0.424117,0.999184 -2.087891,-0.972656 -1.40175,-1.6613 -1.866533,-1.921993 -1.443359,-0.814453 0.342886,0.89741 0.814525,2.366262 1.046875,3.263672 l 0.421875,1.630859 -1.761719,-1.630859 -1.763672,-1.632813 1.736328,3.095703 c 2.158437,3.845716 1.287912,5.108566 -1.240234,1.798828 -2.19886,-2.878658 -2.377798,-2.380597 -0.572266,1.593748 2.470367,5.43776 -0.794239,4.44751 -3.714844,-1.126951 -1.126699,-2.1505 -1.402331,-2.378456 -1.048828,-0.873047 0.263416,1.12177 1.180596,3.076478 2.03711,4.345708 1.55344,2.30196 1.503184,3.64984 -0.09766,2.61132 -0.464498,-0.30134 -1.899515,-2.63363 -3.189454,-5.18164 l -2.345703,-4.630856 0.484375,3.236328 c 0.26682,1.781148 1.329621,4.751678 2.361328,6.599608 2.807013,5.02777 2.269664,5.98457 -1.328125,2.36328 -2.537394,-2.55398 -2.998818,-2.80078 -2.220703,-1.18554 0.540402,1.12176 1.631447,3.01404 2.425782,4.20507 0.794336,1.19104 1.443359,2.56698 1.443359,3.0586 0,3.42217 -5.499379,-4.61972 -6.919922,-10.11914 -1.109965,-4.296956 -1.076047,-10.099475 0.07813,-13.544925 0.916647,-2.7364 0.935834,-2.744952 1.476562,-0.732422 l 0.548829,2.039063 0.07617,-2.152344 c 0.08787,-2.44221 3.064157,-6.558166 3.664063,-5.066406 0.239609,0.59582 1.065271,0.222008 2.248047,-1.019532 1.146914,-1.204 2.233158,-1.871196 2.777344,-1.941406 z M 32.458984,171.98438 c -0.04375,1.8e-4 -0.07937,0.0135 -0.107422,0.043 -0.224462,0.2356 0.227821,1.16625 1.003907,2.06641 1.934403,2.24369 2.242361,2.05183 0.693359,-0.42969 -0.620347,-0.9938 -1.283611,-1.68104 -1.589844,-1.67968 z m -2.939453,32.32421 c -0.402305,-0.0143 -0.05243,0.51503 0.777344,1.17383 0.829777,0.65878 1.835975,1.20837 2.238281,1.22266 0.402305,0.0143 0.05243,-0.51308 -0.777344,-1.17188 -0.829775,-0.65878 -1.835975,-1.21032 -2.238281,-1.22461 z"
       transform="translate(0,742.36218)"
       id="path980"
       inkscape:connector-curvature="0"
       sodipodi:nodetypes="ccsccccscscsccccssscccscccsccsscscssccsssccccscccsscccccccccccccccccscccccscsccccssccccccscccccssccccccsssscccsccccccscccccccccccccccccccccscccsccsscscccccsccccscccccccccccsccssccsccccccccccccccccccscssccccccssccccccccccccccccssscccccscccccccccccccccccccccccccccccccccsccccssssscscccccccsccccccccccccscsscccccccscccsccccccscssccccsscscccscscccccccsccccsccccssccccscccsccccccssccssccccccccscccccccccscccccccccccccccccccc" />
  </g>
</svg>
