<?xml version="1.0" encoding="UTF-8" standalone="no"?>
<!-- Created with Inkscape (http://www.inkscape.org/) -->

<svg
   xmlns:dc="http://purl.org/dc/elements/1.1/"
   xmlns:cc="http://creativecommons.org/ns#"
   xmlns:rdf="http://www.w3.org/1999/02/22-rdf-syntax-ns#"
   xmlns:svg="http://www.w3.org/2000/svg"
   xmlns="http://www.w3.org/2000/svg"
   xmlns:xlink="http://www.w3.org/1999/xlink"
   xmlns:sodipodi="http://sodipodi.sourceforge.net/DTD/sodipodi-0.dtd"
   xmlns:inkscape="http://www.inkscape.org/namespaces/inkscape"
   width="310"
   height="310"
   id="svg2"
   version="1.1"
   inkscape:version="0.48.4 r9939"
   sodipodi:docname="squirrel.svg"
   inkscape:export-filename="/home/crawford/Projects/Squirrel/images/squirrel300.png"
   inkscape:export-xdpi="87.096771"
   inkscape:export-ydpi="87.096771">
  <defs
     id="defs4">
    <linearGradient
       id="linearGradient3767">
      <stop
         style="stop-color:#f3843e;stop-opacity:1;"
         offset="0"
         id="stop3769" />
      <stop
         style="stop-color:#393939;stop-opacity:1;"
         offset="1"
         id="stop3771" />
    </linearGradient>
    <radialGradient
       inkscape:collect="always"
       xlink:href="#linearGradient3767"
       id="radialGradient3777"
       cx="465.40973"
       cy="317.71933"
       fx="465.40973"
       fy="317.71933"
       r="57.233067"
       gradientTransform="matrix(2.5475569,0,0,2.5959023,-1031.6766,72.593857)"
       gradientUnits="userSpaceOnUse" />
  </defs>
  <sodipodi:namedview
     id="base"
     pagecolor="#ffffff"
     bordercolor="#666666"
     borderopacity="1.0"
     inkscape:pageopacity="0.0"
     inkscape:pageshadow="2"
     inkscape:zoom="1.4"
     inkscape:cx="283.83617"
     inkscape:cy="279.48155"
     inkscape:document-units="px"
     inkscape:current-layer="layer1"
     showgrid="false"
     inkscape:window-width="1920"
     inkscape:window-height="1031"
     inkscape:window-x="0"
     inkscape:window-y="0"
     inkscape:window-maximized="1" />
  <metadata
     id="metadata7">
    <rdf:RDF>
      <cc:Work
         rdf:about="">
        <dc:format>image/svg+xml</dc:format>
        <dc:type
           rdf:resource="http://purl.org/dc/dcmitype/StillImage" />
        <dc:title></dc:title>
      </cc:Work>
    </rdf:RDF>
  </metadata>
  <g
     inkscape:label="Layer 1"
     inkscape:groupmode="layer"
     id="layer1"
     transform="translate(0,-742.36218)">
    <path
       style="fill:url(#radialGradient3777);fill-opacity:1;stroke:none"
       d="m 45.939802,748.79076 c 0,0 69.073638,50.22008 69.147978,100.77921 0.0466,31.78796 -48.104114,67.53976 -42.762549,110.13002 2.967955,23.66458 37.303489,60.25951 37.303489,60.25951 0,0 -18.536223,-55.01005 -15.467283,-83.11682 2.7186,-24.89807 10.634903,-53.95916 29.114933,-67.53243 17.09749,-12.55782 57.42901,4.81905 72.78734,-10.38962 19.57436,-19.38368 41.85272,-81.03896 41.85272,-81.03896 l 6.36889,42.59742 c 0,0 20.49166,9.9527 28.2051,18.70129 9.74257,11.05004 20.92634,40.51949 20.92634,40.51949 0,0 -28.40462,6.53163 -41.85271,12.46755 -6.70617,2.96005 -18.64608,3.23537 -19.10668,11.42856 -0.47433,8.43739 11.36842,11.27695 18.19684,14.54532 15.36073,7.35243 49.13145,10.38981 49.13145,10.38981 0,0 -51.58976,21.5427 -80.06607,20.77906 -13.3441,-0.35782 -27.29527,-1.03884 -27.29527,-1.03884 0,0 8.47708,22.84015 10.00829,35.32452 2.73424,22.29325 -1.8197,62.33775 -1.8197,62.33775 l -100.992441,0 c 0,0 -85.418692,-42.4925 -90.9841622,-87.27274 C 3.1994382,914.91511 47.679554,880.83144 53.218554,837.10248 57.585194,802.6289 45.939802,748.79076 45.939802,748.79076 z"
       id="path2997"
       inkscape:connector-curvature="0"
       sodipodi:nodetypes="csscsssccscssscscsccssc" />
  </g>
</svg>
