<?xml version="1.0" encoding="UTF-8" standalone="no"?>
<!-- License Agreement at http://iconmonstr.com/license/ -->

<svg
   xmlns:dc="http://purl.org/dc/elements/1.1/"
   xmlns:cc="http://creativecommons.org/ns#"
   xmlns:rdf="http://www.w3.org/1999/02/22-rdf-syntax-ns#"
   xmlns:svg="http://www.w3.org/2000/svg"
   xmlns="http://www.w3.org/2000/svg"
   xmlns:sodipodi="http://sodipodi.sourceforge.net/DTD/sodipodi-0.dtd"
   xmlns:inkscape="http://www.inkscape.org/namespaces/inkscape"
   version="1.1"
   x="0px"
   y="0px"
   width="512px"
   height="512px"
   viewBox="0 0 512 512"
   enable-background="new 0 0 512 512"
   xml:space="preserve"
   id="svg4506"
   inkscape:version="0.48.4 r9939"
   sodipodi:docname="alarm.svg"
   inkscape:export-filename="/home/crawford/Projects/Squirrel/images/alarm16.png"
   inkscape:export-xdpi="2.8125"
   inkscape:export-ydpi="2.8125"><metadata
     id="metadata4513"><rdf:RDF><cc:Work
         rdf:about=""><dc:format>image/svg+xml</dc:format><dc:type
           rdf:resource="http://purl.org/dc/dcmitype/StillImage" /><dc:title></dc:title></cc:Work></rdf:RDF></metadata><defs
     id="defs4511" /><sodipodi:namedview
     pagecolor="#ffffff"
     bordercolor="#666666"
     borderopacity="1"
     objecttolerance="10"
     gridtolerance="10"
     guidetolerance="10"
     inkscape:pageopacity="0"
     inkscape:pageshadow="2"
     inkscape:window-width="1440"
     inkscape:window-height="858"
     id="namedview4509"
     showgrid="false"
     inkscape:zoom="0.4609375"
     inkscape:cx="-139.9322"
     inkscape:cy="256"
     inkscape:window-x="0"
     inkscape:window-y="0"
     inkscape:window-maximized="0"
     inkscape:current-layer="svg4506" /><path
     id="bell-2-icon"
     d="M 325.1003,99.156149 C 312.04104,91.829097 303.95424,78.1801 303.98112,63.46317 c 0,-0.02399 0,-0.04797 0,-0.07196 0,-22.972574 -19.05541,-41.594602 -42.55739,-41.594602 -23.50432,0 -42.5574,18.622028 -42.5574,41.594602 0,0.02399 0,0.04797 0,0.0731 0.0257,14.735205 -8.04473,28.357932 -21.11918,35.692987 C 102.99482,152.31413 157.44051,328.8499 58.435594,360.05071 v 41.23367 H 464.41186 V 360.05072 C 365.40577,328.84877 419.8538,152.31299 325.1003,99.156149 z M 261.42373,46.515571 c 9.52069,0 17.26626,7.569197 17.26626,16.875642 0,9.305303 -7.74557,16.875642 -17.26626,16.875642 -9.51953,0 -17.26627,-7.570339 -17.26627,-16.875642 0,-9.305303 7.74674,-16.875642 17.26627,-16.875642 z M 126.27126,361.30825 c 43.7634,-52.81876 40.20029,-136.3015 62.32916,-190.22246 12.04489,-29.34934 33.48778,-50.37679 72.82331,-50.37679 38.92183,0 60.61013,20.61741 72.8233,50.37679 22.1312,53.92439 18.56927,137.40713 62.32916,190.22246 H 126.27126 z m 193.77829,74.3362 c 0,31.33102 -25.98529,56.72843 -58.04152,56.72843 -32.05506,0 -58.04035,-25.39741 -58.04035,-56.72843 h 116.08187 z"
     inkscape:connector-curvature="0"
     style="fill:#ca9900;fill-opacity:1" /></svg>