<?xml version="1.0" encoding="UTF-8" standalone="no"?>
<!-- The icon can be used freely in both personal and commercial projects with no attribution required, but always appreciated. 
You may NOT sub-license, resell, rent, redistribute or otherwise transfer the icon without express written permission from iconmonstr.com -->

<svg
   xmlns:dc="http://purl.org/dc/elements/1.1/"
   xmlns:cc="http://creativecommons.org/ns#"
   xmlns:rdf="http://www.w3.org/1999/02/22-rdf-syntax-ns#"
   xmlns:svg="http://www.w3.org/2000/svg"
   xmlns="http://www.w3.org/2000/svg"
   xmlns:sodipodi="http://sodipodi.sourceforge.net/DTD/sodipodi-0.dtd"
   xmlns:inkscape="http://www.inkscape.org/namespaces/inkscape"
   version="1.1"
   x="0px"
   y="0px"
   width="512px"
   height="512px"
   viewBox="0 0 512 512"
   enable-background="new 0 0 512 512"
   xml:space="preserve"
   id="svg3830"
   inkscape:version="0.48.4 r9939"
   sodipodi:docname="folder-closed.svg"
   inkscape:export-filename="/home/crawford/Projects/Squirrel/images/folder-closed16.png"
   inkscape:export-xdpi="2.9591575"
   inkscape:export-ydpi="2.9591575"><metadata
     id="metadata3837"><rdf:RDF><cc:Work
         rdf:about=""><dc:format>image/svg+xml</dc:format><dc:type
           rdf:resource="http://purl.org/dc/dcmitype/StillImage" /><dc:title></dc:title></cc:Work></rdf:RDF></metadata><defs
     id="defs3835" /><sodipodi:namedview
     pagecolor="#ffffff"
     bordercolor="#666666"
     borderopacity="1"
     objecttolerance="10"
     gridtolerance="10"
     guidetolerance="10"
     inkscape:pageopacity="0"
     inkscape:pageshadow="2"
     inkscape:window-width="1723"
     inkscape:window-height="981"
     id="namedview3833"
     showgrid="false"
     inkscape:zoom="1.3037281"
     inkscape:cx="115.2498"
     inkscape:cy="256"
     inkscape:window-x="0"
     inkscape:window-y="0"
     inkscape:window-maximized="0"
     inkscape:current-layer="svg3830" /><path
     style="fill:#b3b6b6;fill-opacity:1;stroke:#a8a8a6;stroke-width:1.17922115;stroke-opacity:1"
     d="m 255.80488,12.700137 c -134.26708,0 -243.111316,108.672613 -243.111316,242.727963 0,134.05536 108.844236,242.72796 243.111316,242.72796 134.26707,0 243.11131,-108.6726 243.11131,-242.72796 0,-134.05535 -108.84424,-242.727963 -243.11131,-242.727963 z m 0,47.131643 c 108.2695,0 195.90523,87.48222 195.90523,195.59632 0,108.0976 -87.62038,195.59632 -195.90523,195.59632 -108.26951,0 -195.905235,-87.48222 -195.905235,-195.59632 0,-108.0976 87.620385,-195.59632 195.905235,-195.59632 z"
     id="path4357"
     inkscape:connector-curvature="0" /><path
     sodipodi:type="arc"
     style="fill:#ececec;fill-opacity:1;fill-rule:nonzero;stroke:#ffffff;stroke-width:0.43399999;stroke-linecap:round;stroke-linejoin:round;stroke-miterlimit:4;stroke-opacity:1;stroke-dasharray:none;stroke-dashoffset:0"
     id="path3839"
     sodipodi:cx="274.59714"
     sodipodi:cy="274.60388"
     sodipodi:rx="157.24138"
     sodipodi:ry="155.32379"
     d="m 431.83852,274.60388 a 157.24138,155.32379 0 1 1 -314.48276,0 157.24138,155.32379 0 1 1 314.48276,0 z"
     transform="matrix(1.2951092,0,0,1.3235775,-99.828402,-108.03143)" /><path
     style="fill:#010000;fill-opacity:1;stroke:#a8a8a6;stroke-width:1.17922115;stroke-opacity:1"
     d="M 185.82007,153.11697 223.89531,115.28558 365.43803,257.28026 223.89531,399.27612 185.82007,361.44472 289.6522,257.28026 185.82007,153.11697 z"
     id="arrow-28-icon"
     inkscape:connector-curvature="0" /></svg>