<?xml version="1.0" encoding="UTF-8" standalone="no"?>
<!-- License Agreement at http://iconmonstr.com/license/ -->

<svg
   xmlns:dc="http://purl.org/dc/elements/1.1/"
   xmlns:cc="http://creativecommons.org/ns#"
   xmlns:rdf="http://www.w3.org/1999/02/22-rdf-syntax-ns#"
   xmlns:svg="http://www.w3.org/2000/svg"
   xmlns="http://www.w3.org/2000/svg"
   xmlns:sodipodi="http://sodipodi.sourceforge.net/DTD/sodipodi-0.dtd"
   xmlns:inkscape="http://www.inkscape.org/namespaces/inkscape"
   version="1.1"
   x="0px"
   y="0px"
   width="512px"
   height="512px"
   viewBox="0 0 512 512"
   enable-background="new 0 0 512 512"
   xml:space="preserve"
   id="svg174129"
   inkscape:version="0.48.4 r9939"
   sodipodi:docname="key.svg"
   inkscape:export-filename="/home/crawford/Projects/Squirrel/images/key36.png"
   inkscape:export-xdpi="6.328125"
   inkscape:export-ydpi="6.328125"><metadata
     id="metadata174136"><rdf:RDF><cc:Work
         rdf:about=""><dc:format>image/svg+xml</dc:format><dc:type
           rdf:resource="http://purl.org/dc/dcmitype/StillImage" /><dc:title></dc:title></cc:Work></rdf:RDF></metadata><defs
     id="defs174134" /><sodipodi:namedview
     pagecolor="#ffffff"
     bordercolor="#666666"
     borderopacity="1"
     objecttolerance="10"
     gridtolerance="10"
     guidetolerance="10"
     inkscape:pageopacity="0"
     inkscape:pageshadow="2"
     inkscape:window-width="1920"
     inkscape:window-height="1031"
     id="namedview174132"
     showgrid="false"
     inkscape:zoom="0.4609375"
     inkscape:cx="256"
     inkscape:cy="256"
     inkscape:window-x="0"
     inkscape:window-y="0"
     inkscape:window-maximized="1"
     inkscape:current-layer="svg174129" /><path
     id="shuffle-2-icon"
     d="m 259.25424,6.6101695 c -137.13553,0 -248.305087,110.6839105 -248.305087,247.2203305 0,136.53644 111.169557,247.22035 248.305087,247.22035 137.13552,0 248.30508,-110.68391 248.30508,-247.22035 0,-136.53642 -111.16956,-247.2203305 -248.30508,-247.2203305 z M 117.97588,167.15338 h 24.11693 c 30.83081,0 60.73229,12.62624 82.3059,35.68734 -0.93657,1.37771 -18.01538,28.51194 -18.01538,28.51194 -15.09598,-20.21687 -38.66929,-32.10744 -64.29052,-32.10744 h -24.11693 v -32.09184 z m 228.28398,199.82604 -0.0699,-26.54018 h -8.67621 c -30.79587,0 -60.71301,-12.60104 -82.30712,-35.68734 0.93536,-1.37652 18.01538,-28.50714 18.01538,-28.50714 15.09719,20.21205 38.67051,32.10504 64.29174,32.10504 h 8.59183 v -29.03879 l 71.30213,44.30524 -71.14784,43.36317 z m -0.22902,-138.62941 0.0748,-29.03879 h -8.59183 c -27.84151,0 -53.26988,14.03275 -68.02595,37.5379 l -32.03859,51.03659 c -20.82147,33.16713 -57.12584,52.62073 -95.35639,52.62073 H 117.97591 V 308.417 h 24.11693 c 27.84031,0 53.26988,-14.03276 68.02596,-37.53789 l 32.03859,-51.03419 c 20.82025,-33.16833 57.12462,-52.62314 95.35638,-52.62314 h 8.67621 l 0.0699,-26.53778 71.14784,43.36317 -71.37686,44.30284 z"
     style="fill:#0000ff;fill-opacity:1"
     inkscape:connector-curvature="0" /></svg>