<?xml version="1.0" encoding="UTF-8" standalone="no"?>
<!-- License Agreement at http://iconmonstr.com/license/ -->

<svg
   xmlns:dc="http://purl.org/dc/elements/1.1/"
   xmlns:cc="http://creativecommons.org/ns#"
   xmlns:rdf="http://www.w3.org/1999/02/22-rdf-syntax-ns#"
   xmlns:svg="http://www.w3.org/2000/svg"
   xmlns="http://www.w3.org/2000/svg"
   xmlns:sodipodi="http://sodipodi.sourceforge.net/DTD/sodipodi-0.dtd"
   xmlns:inkscape="http://www.inkscape.org/namespaces/inkscape"
   version="1.1"
   x="0px"
   y="0px"
   width="512px"
   height="512px"
   viewBox="0 0 512 512"
   enable-background="new 0 0 512 512"
   xml:space="preserve"
   id="svg5067"
   inkscape:version="0.48.4 r9939"
   sodipodi:docname="rang.svg"
   inkscape:export-filename="/home/crawford/Projects/Squirrel/images/rang16.png"
   inkscape:export-xdpi="2.8125"
   inkscape:export-ydpi="2.8125"><metadata
     id="metadata5074"><rdf:RDF><cc:Work
         rdf:about=""><dc:format>image/svg+xml</dc:format><dc:type
           rdf:resource="http://purl.org/dc/dcmitype/StillImage" /><dc:title></dc:title></cc:Work></rdf:RDF></metadata><defs
     id="defs5072" /><sodipodi:namedview
     pagecolor="#ffffff"
     bordercolor="#666666"
     borderopacity="1"
     objecttolerance="10"
     gridtolerance="10"
     guidetolerance="10"
     inkscape:pageopacity="0"
     inkscape:pageshadow="2"
     inkscape:window-width="1920"
     inkscape:window-height="1031"
     id="namedview5070"
     showgrid="false"
     inkscape:zoom="0.4609375"
     inkscape:cx="-139.9322"
     inkscape:cy="256"
     inkscape:window-x="0"
     inkscape:window-y="0"
     inkscape:window-maximized="1"
     inkscape:current-layer="svg5067" /><path
     id="bell-8-icon"
     d="m 316.5071,112.62755 c -11.96467,-6.6512 -19.3721,-19.04113 -19.3495,-32.403449 0,-0.02304 0,-0.04263 0,-0.06567 0,-20.855724 -17.4569,-37.76082 -38.98807,-37.76082 -21.53354,0 -38.98807,16.906248 -38.98807,37.76082 0,0.02304 0,0.04263 0,0.06567 0.025,13.377297 -7.36936,25.745329 -19.34831,32.403449 -86.80629,48.25896 -36.92655,208.52499 -127.628678,236.84877 v 37.43477 H 444.13459 V 349.47632 C 353.43246,321.15023 403.31459,160.88536 316.5071,112.62755 z M 258.16953,64.838655 c 8.7231,0 15.81887,6.872412 15.81887,15.319775 0,8.447364 -7.09577,15.319775 -15.81887,15.319775 -8.72072,0 -15.81886,-6.872411 -15.81886,-15.319775 0,-8.447363 7.09814,-15.319775 15.81886,-15.319775 z M 134.35104,350.61923 c 40.09318,-47.9502 36.83019,-123.74028 57.1028,-172.69282 11.03443,-26.64284 30.67894,-45.73351 66.71569,-45.73351 35.65847,0 55.52781,18.71738 66.71688,45.73351 20.27618,48.95599 17.01201,124.74377 57.1028,172.69282 H 134.35104 z m 177.52746,67.48443 c 0,28.4436 -23.808,51.49873 -53.17485,51.49873 -29.36566,0 -53.17247,-23.05628 -53.17247,-51.49873 H 311.8785 z M 431.01247,208.71228 c 4.01479,15.63661 1.11106,31.3723 -6.83763,44.17238 l 21.73934,12.66183 c 11.29613,-18.18626 15.42274,-40.54896 9.71401,-62.76995 -5.7135,-22.22329 -20.18577,-40.09502 -38.96547,-51.03327 l -13.06859,21.05504 c 13.21253,7.69848 23.39403,20.27736 27.41834,35.91397 z m 68.30852,-16.4696 c -8.71477,-33.91157 -30.79433,-61.18577 -59.44743,-77.87427 l -13.40405,21.58156 c 22.9527,13.36923 40.638,35.21578 47.61838,62.37477 6.97681,27.16244 1.93305,54.48964 -11.87069,76.71754 l 22.28416,12.98212 c 17.23089,-27.75694 23.5344,-61.87244 14.81963,-95.78172 z M 112.74493,172.79831 99.676335,151.74327 c -18.779695,10.93825 -33.251971,28.80998 -38.965463,51.03327 -5.708733,22.22099 -1.582124,44.58369 9.714007,62.76995 L 92.164221,252.88466 C 84.215533,240.08573 81.311799,224.34889 85.326588,208.71228 89.350895,193.07567 99.532405,180.49679 112.74493,172.79831 z M 31.836506,288.0244 54.12067,275.04228 C 40.315741,252.81438 35.270786,225.48718 42.248788,198.32474 49.230358,171.1669 66.915655,149.3192 89.868356,135.94997 L 76.464312,114.36841 c -28.654297,16.68734 -50.731476,43.9627 -59.447436,77.87427 -8.7135796,33.90928 -2.410063,68.02478 14.81963,95.78172 z"
     style="fill:#cf6200;fill-opacity:1"
     inkscape:connector-curvature="0" /></svg>