<?xml version="1.0" encoding="UTF-8" standalone="no"?>
<!-- Created with Inkscape (http://www.inkscape.org/) -->

<svg
   xmlns:dc="http://purl.org/dc/elements/1.1/"
   xmlns:cc="http://creativecommons.org/ns#"
   xmlns:rdf="http://www.w3.org/1999/02/22-rdf-syntax-ns#"
   xmlns:svg="http://www.w3.org/2000/svg"
   xmlns="http://www.w3.org/2000/svg"
   xmlns:xlink="http://www.w3.org/1999/xlink"
   xmlns:sodipodi="http://sodipodi.sourceforge.net/DTD/sodipodi-0.dtd"
   xmlns:inkscape="http://www.inkscape.org/namespaces/inkscape"
   width="310"
   height="310"
   id="svg2"
   version="1.1"
   inkscape:version="0.92.5 (2060ec1f9f, 2020-04-08)"
   sodipodi:docname="squirrel.svg"
   inkscape:export-filename="/home/crawford/Projects/Squirrel/images/squirrel300.png"
   inkscape:export-xdpi="87.096771"
   inkscape:export-ydpi="87.096771">
  <defs
     id="defs4">
    <linearGradient
       id="linearGradient3767">
      <stop
         style="stop-color:#f3843e;stop-opacity:1;"
         offset="0"
         id="stop3769" />
      <stop
         style="stop-color:#393939;stop-opacity:1;"
         offset="1"
         id="stop3771" />
    </linearGradient>
    <linearGradient
       inkscape:collect="always"
       xlink:href="#linearGradient3767"
       id="linearGradient871"
       x1="139.09996"
       y1="777.94513"
       x2="212.69699"
       y2="1043.084"
       gradientUnits="userSpaceOnUse" />
  </defs>
  <sodipodi:namedview
     id="base"
     pagecolor="#ffffff"
     bordercolor="#666666"
     borderopacity="1.0"
     inkscape:pageopacity="0.0"
     inkscape:pageshadow="2"
     inkscape:zoom="0.81089613"
     inkscape:cx="-72.412606"
     inkscape:cy="333.6695"
     inkscape:document-units="px"
     inkscape:current-layer="layer1"
     showgrid="false"
     inkscape:window-width="1856"
     inkscape:window-height="1019"
     inkscape:window-x="64"
     inkscape:window-y="24"
     inkscape:window-maximized="1"
     objecttolerance="3" />
  <metadata
     id="metadata7">
    <rdf:RDF>
      <cc:Work
         rdf:about="">
        <dc:format>image/svg+xml</dc:format>
        <dc:type
           rdf:resource="http://purl.org/dc/dcmitype/StillImage" />
        <dc:title></dc:title>
      </cc:Work>
    </rdf:RDF>
  </metadata>
  <g
     inkscape:label="Layer 1"
     inkscape:groupmode="layer"
     id="layer1"
     transform="translate(0,-742.36218)">
    <path
       style="fill:url(#linearGradient871);fill-opacity:1;stroke-width:1.03198349"
       d="m 42.574044,764.96874 c -0.118278,-0.0768 -0.178893,0.24195 -0.19886,0.9704 -0.02458,0.89741 1.871292,5.45458 4.213993,10.12781 2.342701,4.67322 4.103519,8.66151 3.911919,8.86262 -0.436309,0.45798 -8.204855,-11.95694 -8.204855,-13.11229 8e-6,-0.4659 -0.175286,-0.66211 -0.390126,-0.43659 -0.214839,0.2255 0.309785,2.54615 1.165832,5.1579 0.856047,2.61177 1.555959,4.95794 1.555959,5.21369 0,0.25576 -2.860828,-2.46312 -6.357423,-6.04227 -6.344372,-6.49415 -6.348585,-6.49792 -2.229957,-1.3799 2.269907,2.8207 3.994056,5.26098 3.831453,5.42242 -0.162602,0.16144 -2.909925,-1.31945 -6.105431,-3.29201 -6.542355,-4.03854 -8.768884,-4.68221 -4.68307,-1.35283 4.492712,3.66097 9.776473,9.14834 8.828753,9.16858 -0.487559,0.0103 -3.985055,-2.11168 -7.772214,-4.71495 -3.787159,-2.60326 -7.410324,-5.06647 -8.051532,-5.47501 -2.023604,-1.2893 3.933961,6.0838 6.714167,8.30972 4.077428,3.26451 2.522014,3.19848 -3.157462,-0.13545 -2.810836,-1.65 -5.111148,-2.80413 -5.111148,-2.56383 0,0.24032 2.360818,2.17625 5.246245,4.30226 2.885434,2.12601 5.392984,3.98038 5.571099,4.12059 0.178124,0.1402 0.151815,0.43501 -0.05768,0.6549 -0.209492,0.2199 -3.288035,-1.07703 -6.841678,-2.88091 -3.55365,-1.80388 -6.5992,-3.13542 -6.76729,-2.95899 -0.168082,0.17643 2.025493,1.91575 4.874329,3.86405 5.719649,3.91162 5.688491,4.98743 -0.06983,2.39651 -2.050808,-0.92274 -3.85351,-1.54638 -4.006032,-1.38628 -0.152522,0.1601 1.358559,1.52358 3.357845,3.0307 5.215808,3.93179 2.708267,4.00569 -3.470177,0.10198 -6.753106,-4.26682 -9.4464887,-5.20585 -4.425001,-1.54244 3.790182,2.76512 6.523227,5.50209 5.495204,5.50209 -0.278277,0 -2.593425,-1.10607 -5.146061,-2.45865 -2.552644,-1.35258 -4.642079,-2.27718 -4.642079,-2.05392 0,0.22324 1.661311,1.29978 3.691802,2.39332 8.780938,4.72903 8.721815,6.76675 -0.07438,2.55904 -3.2716828,-1.56503 -5.9490861,-2.74096 -5.9490861,-2.61322 0,0.12776 2.2733803,1.81148 5.0519391,3.74296 2.778566,1.93148 5.051939,3.81571 5.051939,4.18752 8e-6,0.37181 -2.542151,-0.54017 -5.650034,-2.02684 -8.6774828,-4.15092 -12.42606041,-4.54528 -4.6481495,-0.48918 8.2159995,4.28455 8.4352695,6.2986 0.3445889,3.16772 -2.6230522,-1.01505 -1.3885604,0.53463 1.3874645,1.74162 2.8806621,1.2525 3.1574771,2.73798 0.2975282,1.59661 -1.1279659,-0.45019 -2.2001817,-0.66066 -2.3832717,-0.46846 -0.1830901,0.19218 0.8865997,0.77111 2.3772016,1.28748 3.397701,1.17706 5.345744,3.30317 3.026912,3.30317 -0.853537,0 -3.0812476,-0.54825 -4.9517475,-1.21737 -3.0485265,-1.09054 -3.2410831,-1.08785 -1.8610799,0.0239 0.8467361,0.68213 2.8577964,1.65555 4.469023,2.16227 2.8326844,0.89085 3.9980584,2.29453 1.9051014,2.29453 -0.563252,0 -3.6140402,-0.71313 -6.7794376,-1.58546 -3.1654051,-0.87233 -5.86282962,-1.4752 -5.9931075,-1.33847 -0.1302545,0.13674 2.4833312,1.25365 5.8079112,2.48097 8.7722879,3.23838 8.9056129,3.99909 0.6041653,3.45294 l -6.9949925,-0.4589 6.0234658,2.02205 c 6.4742233,2.17352 8.1658533,4.05913 2.9145802,3.24899 -1.7098871,-0.2638 -4.5953215,-0.66129 -6.4120765,-0.88275 l -3.3031909,-0.40154 4.2443594,1.63485 c 6.3736739,2.45558 6.7850805,3.50684 1.1961903,3.05778 l -4.6633283,-0.37446 3.1088855,1.44683 c 1.7098949,0.79521 3.7006387,1.4725 4.4234856,1.50578 0.722847,0.0333 1.5300925,0.42768 1.7942856,0.87639 0.2973416,0.505 -1.2386422,0.84717 -4.0333516,0.8971 l -4.51608373,0.0797 3.41704603,1.12656 c 5.3031837,1.7474 4.8776161,2.13496 -2.02047245,1.8404 -3.56520005,-0.15224 -6.08077035,0.0376 -5.70468065,0.43022 0.3699807,0.38622 2.9946806,0.66456 5.83371494,0.61985 2.83902656,-0.0447 4.97884136,0.23068 4.75440316,0.61188 -0.2244382,0.38119 -2.5479571,1.32362 -5.16275528,2.09374 -2.61479042,0.77013 -4.57712672,1.58512 -4.36123792,1.81173 0.2158966,0.22662 2.8456873,-0.31706 5.8443396,-1.20781 2.9986522,-0.89075 5.65277,-1.40891 5.8974704,-1.15205 0.2447081,0.25686 -1.5666918,1.67882 -4.0257659,3.15976 -2.4590741,1.48094 -4.18432679,2.70324 -3.83297609,2.71679 0.3513507,0.0136 2.18385999,-0.92474 4.07130329,-2.08579 5.2656671,-3.23919 5.6753794,-1.95139 0.7772214,2.44113 -4.87963687,4.3759 -5.32115302,5.78164 -0.8060641,2.56541 4.336771,-3.08923 4.9719085,-2.52398 1.4997963,1.33369 -2.5123293,2.79131 -2.6828827,3.15931 -0.9350983,2.02046 2.8712112,-1.87087 2.6922016,-1.00868 -0.6937245,3.32867 l -2.83260671,3.62822 3.29559741,-1.76551 c 1.8127213,-0.97072 3.5249555,-1.52395 3.8041335,-1.23012 0.4807269,0.50594 -0.2156712,1.24296 -5.7729907,6.11555 -3.7988561,3.3308 -4.0461679,4.68328 -0.3324487,1.81651 4.4627664,-3.445 5.428293,-3.3558 2.4333714,0.22468 -2.4545817,2.9345 -5.09794277,7.65431 -4.5874249,8.19019 0.15673447,0.16453 1.8426831,-1.75409 3.7479636,-4.26241 4.0700753,-5.35827 4.9803492,-4.25719 1.9172497,2.31844 l -2.0265425,4.34845 3.1240646,-3.67125 c 3.5306681,-4.14966 3.6478341,-3.84367 1.9946688,5.22484 -1.317911,7.22942 -1.1085042,8.98995 0.3977119,3.34301 1.1713974,-4.39167 2.3255554,-5.51715 2.3498824,-2.29294 l 0.0167,2.29134 1.425409,-1.94557 c 1.417473,-1.93495 1.423248,-1.9129 1.341919,4.2417 -0.04495,3.40211 0.267776,6.55473 0.695248,7.00629 0.518492,0.5477 0.691331,-1.06699 0.519161,-4.85199 -0.148178,-3.25766 0.05868,-5.67418 0.485763,-5.67418 0.788709,0 1.715351,3.80123 1.715351,7.03657 0,1.06567 0.34975,1.9376 0.777221,1.9376 0.427472,0 0.777222,-0.89649 0.777222,-1.99178 0,-1.09529 0.405453,-2.25403 0.900185,-2.57497 0.92522,-0.60023 0.554237,4.82378 -0.566221,8.27465 -0.284797,0.87713 0.45982,0.14098 1.65615,-1.63645 2.743343,-4.07591 3.143177,-2.94432 1.129404,3.1996 -0.862809,2.63239 -1.461511,4.89854 -1.331295,5.03522 0.130208,0.13668 1.267306,-1.75755 2.527485,-4.20983 1.260179,-2.45227 2.552986,-4.45996 2.87359,-4.46159 1.103701,-0.006 0.546658,4.49103 -1.010994,8.15514 l -1.560513,3.67125 3.192374,-3.87521 c 3.374105,-4.09543 5.671066,-5.28355 3.549112,-1.83562 -3.539668,5.75154 -3.839256,6.60884 -1.285757,3.67125 l 2.481947,-2.85542 -0.500942,2.40289 -0.500943,2.40129 1.58177,-1.99337 c 1.988467,-2.50787 2.254004,-0.46191 0.326371,2.51443 -1.29025,1.99219 -1.287576,1.9996 0.255022,0.58956 2.239579,-2.04714 2.849045,-1.76002 1.352552,0.63736 -0.708966,1.13578 -1.094686,2.26884 -0.85768,2.51762 0.237006,0.24879 0.826497,-0.32474 1.310046,-1.27316 0.483556,-0.94841 1.209185,-1.50843 1.613643,-1.24605 0.430107,0.27904 0.213938,1.53645 -0.522199,3.03069 -0.969918,1.96879 -1.059718,2.89125 -0.387087,4.0218 1.228647,2.06512 1.093597,2.48874 -0.613275,1.92009 -1.46364,-0.48762 -1.46364,-0.44806 0,2.56541 2.371808,4.88328 1.556301,7.20723 -1.167355,3.32707 -0.708671,-1.0096 -0.393694,-0.14006 0.698287,1.93282 1.091972,2.07287 1.779479,4.32995 1.528639,5.0161 -0.250841,0.68617 -0.08319,1.49001 0.373431,1.78623 0.45661,0.29623 0.830345,0.9534 0.830345,1.45958 7e-6,0.50617 -1.135194,-0.15762 -2.522931,-1.47552 -2.418915,-2.2972 -2.444555,-2.30393 -0.643632,-0.15615 2.253631,2.68768 1.645906,3.80743 -1.05654,1.94876 -3.193991,-2.19675 -3.055405,-1.57573 0.79544,3.56927 3.933167,5.25501 4.366025,7.26422 0.699802,3.2474 -1.224364,-1.34144 -2.575152,-2.43954 -3.002624,-2.43954 -0.427471,0 0.223817,1.0981 1.448181,2.43954 1.224357,1.34144 1.954891,2.71816 1.622753,3.05937 -0.332145,0.34121 -1.79357,-0.81755 -3.247021,-2.57497 -1.453451,-1.75742 -2.642864,-2.81857 -2.642864,-2.35827 0,0.46029 1.399007,2.50381 3.108886,4.54285 4.217942,5.02988 3.9318,5.85465 -0.481209,1.38469 -2.095529,-2.12257 -3.226184,-2.89309 -2.71572,-1.84838 0.4811,0.98461 1.221862,2.01711 1.647041,2.29294 1.127414,0.73141 0.947534,2.22004 -0.19886,1.64602 -0.534332,-0.26757 -0.328174,-0.0136 0.456928,0.56406 0.785103,0.57761 2.008379,1.47874 2.718752,2.00294 2.153758,1.58929 0.443537,2.11598 -2.204153,0.67879 -4.075765,-2.21236 -3.489787,-0.79357 0.822766,1.99179 4.704754,3.03866 4.673121,4.20634 -0.04555,1.67946 -1.792739,-0.96002 -3.379374,-1.62021 -3.526331,-1.46595 -0.146957,0.15427 1.636261,1.32708 3.962002,2.60525 2.325742,1.27818 4.227657,2.64656 4.227657,3.04026 0,1.03074 -0.436635,0.9089 -3.283449,-0.91304 -1.399613,-0.89574 -3.070336,-1.62618 -3.711543,-1.6221 -0.6412,0.004 0.932665,1.23353 3.497496,2.73272 2.821213,1.64906 4.667036,3.26954 4.670922,4.10308 0.0037,0.75779 0.51909,1.71028 1.144583,2.11606 0.966125,0.62677 0.931694,0.81973 -0.221633,1.28429 -0.852371,0.34334 -2.506422,-0.2523 -4.44625,-1.59979 -3.574698,-2.48315 -4.04794,-2.11336 -0.953317,0.74572 1.494162,1.38042 1.775741,1.98331 0.933583,2.00134 -0.662581,0.0142 -1.678565,-0.43342 -2.257284,-0.99429 -0.578719,-0.56089 -0.38575,-0.0112 0.428078,1.22215 0.813829,1.23336 2.352913,2.45756 3.421593,2.71998 1.068679,0.26242 2.467686,0.67002 3.108885,0.90506 2.358028,0.86435 -1.71891,1.59904 -5.366161,0.96721 -4.819838,-0.83497 -6.465721,-0.73838 -3.377579,0.19758 2.766745,0.83855 3.295597,2.01945 1.165832,2.60366 -0.748068,0.2052 -0.267162,0.41642 1.068679,0.46846 3.921432,0.1528 7.295024,1.05194 6.840163,1.82448 -0.232024,0.39408 -1.063441,0.71704 -1.847425,0.71704 -0.783983,0 -1.641934,0.59214 -1.906617,1.31617 -0.408593,1.11767 -0.05702,1.23244 2.325594,0.76324 3.07475,-0.60548 3.106694,0.73996 0.04705,1.96948 -1.598589,0.6424 -1.579376,0.6945 0.467545,1.25402 2.817389,0.77012 2.817381,2.38695 0,1.68107 -1.954805,-0.48977 -1.838618,-0.2527 1.360138,2.77256 3.023057,2.85907 3.233917,3.25201 1.554443,2.90162 9.64405,9.43747 14.291461,22.84155 22.210018,31.07335 -0.207207,0.2113 -0.401746,0.4177 -0.610243,0.6294 17.650449,12.0476 30.734287,20.0085 56.764483,17.7286 9.62897,-0.8436 6.6822,-2.1124 9.38586,0.5258 4.53005,4.4203 7.50806,5.6953 31.59435,3.6951 9.48467,-0.7876 28.46724,0.1513 42.184,0.1354 22.44302,-0.025 25.18102,-1.8034 27.35151,-3.4146 1.7729,-1.3163 2.21211,-2.3675 1.65918,-3.9645 -1.77432,-5.1253 -13.63226,-11.462 -28.70709,-9.6897 -13.34703,1.5694 -16.88099,-7.0849 -8.0242,-15.46578 -0.21625,-0.27519 -0.42553,-0.53359 -0.6406,-0.80625 2.33595,-5.1248 3.62646,-11.73511 4.62386,-23.31499 1.07524,-12.4836 1.87406,-17.07451 3.74037,-21.48254 2.02712,-4.78782 5.56572,-9.03558 6.61246,-7.93684 1.21458,1.27492 13.2738,1.05202 21.20205,-0.39199 3.79637,-0.69145 14.32485,-3.88664 23.39558,-7.1003 l 16.49166,-5.84308 1.88841,1.86111 c 1.21031,1.19351 2.08103,3.21852 2.42729,5.64232 2.24891,15.74177 12.0175,18.61391 22.26922,6.54738 2.79718,-3.29236 2.84128,-3.31057 3.75252,-1.52331 0.7641,1.49866 0.68005,2.08927 -0.48879,3.44499 -1.38357,1.60478 -1.36674,1.63211 0.83338,1.36078 1.30127,-0.16048 2.87845,-1.17253 3.75404,-2.40926 1.77969,-2.51375 3.8918,-12.26412 3.24399,-14.97341 -0.24849,-1.03927 -0.0735,-2.13337 0.38861,-2.43316 1.39993,-0.90818 0.97434,-8.39642 -0.66944,-11.77859 -1.08809,-2.23877 -2.70945,-3.76586 -5.80487,-5.46704 l -4.29445,-2.35986 2.75063,-2.95739 c 2.34246,-2.51807 2.55537,-3.0369 1.43148,-3.4896 -1.64135,-0.66114 -3.0116,0.48594 -4.20944,3.52146 l -0.92295,2.33756 -6.08115,-0.4366 c -5.15494,-0.37087 -6.59801,-0.17373 -9.48301,1.29226 -2.97207,1.51023 -3.975,1.63098 -7.92553,0.95606 -4.6002,-0.7859 -9.95101,-3.51937 -12.24276,-6.25419 -2.27709,-2.71732 -2.42695,-4.85005 -0.50701,-7.18794 1.59252,-1.93921 2.56839,-2.24209 9.40407,-2.91915 8.23425,-0.81557 9.08226,-1.08341 9.08226,-2.87453 0,-0.93794 1.43785,-1.17596 7.11188,-1.17596 7.39939,0 8.03034,-0.19481 19.31365,-5.96259 3.25705,-1.66493 3.51514,-2.03104 3.74038,-5.31726 0.19151,-2.79421 -0.1819,-4.11059 -1.79277,-6.32749 -1.11891,-1.53982 -2.70166,-4.83666 -3.51723,-7.32496 -3.80652,-11.61348 -11.65728,-25.11317 -17.61956,-30.29897 -5.8862,-5.11964 -15.05638,-11.39546 -20.7087,-14.17191 -4.80273,-2.35912 -5.18096,-2.73455 -5.18096,-5.15154 0,-3.52148 -2.05887,-11.59504 -3.70091,-14.5129 -2.67374,-4.75114 -7.01342,-3.83312 -10.68224,2.25947 l -2.16469,3.59477 -3.96656,-4.43929 c -4.67501,-5.23179 -6.7395,-6.11444 -8.92894,-3.81624 -2.18939,2.29815 -3.19074,6.82413 -3.19541,14.45076 -0.005,7.63324 0.0967,7.48377 -8.23217,12.13711 -3.02956,1.69262 -7.81647,5.03173 -10.6367,7.42057 -7.24809,6.13944 -10.63859,7.75583 -17.39489,8.29219 -5.67925,0.45086 -5.72933,0.47553 -4.36731,2.09376 1.3488,1.60254 1.32768,1.62692 -0.95483,1.1616 -1.28241,-0.26143 -2.94647,-0.72521 -3.69939,-1.03094 -1.04247,-0.42332 -1.25552,-0.2426 -0.88955,0.75847 0.26431,0.72303 0.29663,1.31456 0.0713,1.31456 -0.22528,0 -4.54747,-1.24725 -9.60445,-2.77096 -17.28558,-5.20828 -28.26287,-5.77326 -41.83789,-2.15271 -18.01693,4.80523 -30.607848,17.15455 -43.572973,42.73723 -7.790588,15.37234 -9.001965,36.90824 -3.863335,68.6479 1.016652,6.27951 1.676032,11.59837 1.466399,11.81843 -0.853311,0.8957 -3.491037,-4.02377 -5.241689,-9.77407 -3.413805,-11.21319 -5.621044,-33.08716 -4.314185,-42.75954 1.650453,-12.21529 9.22299,-31.29979 17.293175,-43.58333 2.161865,-3.29056 7.626796,-9.64963 12.144078,-14.13209 5.62049,-5.57754 7.39324,-7.72658 5.61513,-6.80711 -4.07892,2.10924 -3.9566,0.63332 0.27779,-3.35414 l 3.87396,-3.64895 -3.30319,1.68266 c -1.81676,0.92527 -3.30319,1.4459 -3.30319,1.15682 0,-0.28908 1.57388,-1.97992 3.49749,-3.75729 4.21296,-3.89262 4.60237,-5.46166 0.65731,-2.65146 -3.97788,2.83357 -4.23559,1.78641 -0.5647,-2.29453 4.6131,-5.12838 5.85489,-7.13437 2.76277,-4.46159 -3.89043,3.36285 -4.29436,2.72926 -1.56355,-2.45547 l 2.47132,-4.69104 -2.46373,2.39651 c -2.18844,2.12809 -2.46525,2.2163 -2.46525,0.79672 1e-5,-0.87913 1.10926,-3.05753 2.46525,-4.84242 l 2.46677,-3.24581 -3.54152,3.54378 c -4.06815,4.07175 -5.76704,3.33182 -2.18442,-0.95127 3.02612,-3.61774 3.04365,-4.81956 0.0258,-1.78464 -3.72563,3.74671 -3.52032,1.81408 0.33548,-3.15498 1.94813,-2.51061 3.54152,-4.78824 3.54152,-5.06071 0,-0.27248 -1.762,1.05439 -3.91647,2.94783 -2.15447,1.89344 -4.16553,3.17841 -4.46902,2.85541 -0.30349,-0.32297 0.75899,-1.74645 2.36202,-3.16295 1.60305,-1.41649 2.91461,-2.91933 2.91458,-3.33981 -10e-6,-0.42048 -1.0446,0.28752 -2.32255,1.57271 -3.28467,3.30326 -3.76263,1.9751 -0.93206,-2.59251 1.31972,-2.12959 2.23581,-4.04433 2.03566,-4.25444 -0.20016,-0.2101 -1.75599,1.04553 -3.45803,2.7901 -3.30301,3.38553 -3.80065,2.92912 -1.9294,-1.77189 1.87271,-4.70468 1.2746,-5.12486 -0.98215,-0.68996 -1.698088,3.33703 -2.123935,3.75581 -2.342288,2.29931 -0.146802,-0.97921 0.278572,-2.88907 0.945718,-4.24328 0.66715,-1.35421 1.19787,-2.75634 1.17797,-3.11515 -0.0199,-0.35881 -0.91948,1.12792 -1.997693,3.30317 -2.390546,4.8228 -3.179333,4.48957 -1.51953,-0.64215 1.627533,-5.03192 1.490548,-5.61698 -0.423523,-1.80854 -0.866959,1.725 -1.770627,2.93283 -2.008325,2.68333 -0.612209,-0.64263 1.19738,-7.8705 2.580616,-10.30628 0.637042,-1.12176 -0.428054,-0.20395 -2.366577,2.03959 -3.692182,4.27314 -4.04487,4.2268 -2.791623,-0.36011 1.208097,-4.42166 0.309598,-3.8562 -1.13699,0.71545 -0.719116,2.27261 -1.644414,4.13174 -2.056908,4.13174 -0.910562,0 -0.139076,-5.00142 1.372285,-8.89608 1.723519,-4.44137 0.636653,-3.84327 -1.622753,0.89232 l -2.067533,4.33252 0.429601,-3.26334 c 0.236726,-1.79483 0.599494,-4.18115 0.806064,-5.30291 0.20657,-1.12177 -0.347969,0.25494 -1.232626,3.05937 -0.884657,2.80443 -1.965391,5.09896 -2.40149,5.09896 -0.436114,0 -0.605751,-0.51372 -0.37647,-1.14089 0.906178,-2.47877 1.331085,-12.45914 0.628453,-14.76786 -0.654078,-2.14919 -0.753454,-1.83436 -0.812134,2.58454 -0.102935,7.75421 -1.0355,8.96747 -2.090298,2.71838 -0.598391,-3.54517 -0.926324,-4.42405 -0.989745,-2.65146 -0.05219,1.4583 -0.445379,2.65146 -0.872858,2.65146 -0.427472,0 -0.815943,-1.19316 -0.863742,-2.65146 -0.07118,-2.17095 -0.220925,-1.91221 -0.824282,1.42771 -1.036425,5.73722 -2.181987,6.54027 -2.267909,1.59023 l -0.06982,-4.03774 -0.862234,2.85542 -0.86375,2.85542 -0.446288,-3.67125 -0.447819,-3.67125 -0.619345,4.69105 c -0.340376,2.58006 -0.943686,4.69103 -1.340404,4.69103 -0.396709,0 -0.777135,-2.47809 -0.845531,-5.50687 -0.06841,-3.02878 -0.265887,-4.29155 -0.440226,-2.80602 -0.403844,3.44101 -1.992982,3.00274 -2.635262,-0.7266 -0.323231,-1.8768 -0.514132,-2.17359 -0.582916,-0.90665 -0.175295,3.22749 -1.653414,1.06132 -1.735085,-2.54312 -0.04261,-1.88052 -0.374691,-4.33729 -0.739277,-5.45907 l -0.663367,-2.03958 0.04858,2.03958 c 0.160084,6.63947 -0.976874,7.76587 -2.26487,2.24354 -0.78654,-3.37234 -0.796901,-3.33881 -0.39165,1.22375 0.285847,3.21824 0.139069,4.69105 -0.467545,4.69105 -0.486323,0 -0.889413,-0.0918 -0.895631,-0.20397 -0.0065,-0.11217 -0.546115,-1.67245 -1.19923,-3.46728 l -1.188596,-3.26334 0.365838,4.69104 c 0.201168,2.58007 0.224251,4.69105 0.05009,4.69105 -0.17416,0 -1.071175,-1.55279 -1.993146,-3.44977 -2.095404,-4.31138 -5.488217,-9.73199 -5.851933,-9.35021 -0.15047,0.15794 0.61894,2.59301 1.709281,5.40968 1.090348,2.81666 1.876477,5.65334 1.747233,6.30518 -0.217319,1.09605 -9.975256,-12.47794 -10.94941,-15.23155 -0.115969,-0.3278 -0.206834,-0.51637 -0.277794,-0.56248 z m 6.77943,58.50417 c 0.544187,-0.0703 0.546223,0.45781 -0.47817,1.646 -1.425463,1.65338 -1.421639,1.65735 0.705872,0.49874 2.133636,-1.16193 4.795728,-0.9793 5.598427,0.38402 0.232304,0.39454 -0.159097,0.71704 -0.869819,0.71704 -0.993577,0 -0.735944,0.66675 1.118771,2.8841 2.222977,2.65761 3.427896,6.84534 1.634893,5.68214 -0.427464,-0.27731 -0.787978,0.16027 -0.801502,0.972 -0.01979,1.18903 -0.425008,0.99984 -2.088782,-0.972 -1.40175,-1.6613 -1.865285,-1.92336 -1.442111,-0.81582 0.342886,0.89741 0.813556,2.36591 1.045906,3.26332 l 0.422008,1.63167 -1.762411,-1.63167 -1.762412,-1.63166 1.736608,3.09443 c 2.158437,3.84572 1.28641,5.11031 -1.241736,1.80057 -2.19886,-2.87866 -2.377823,-2.38092 -0.572291,1.59343 2.470367,5.43776 -0.793963,4.44632 -3.714566,-1.12814 -1.126699,-2.1505 -1.400934,-2.37862 -1.047431,-0.87321 0.263416,1.12177 1.180654,3.07764 2.037168,4.34687 1.55344,2.30196 1.502166,3.65014 -0.09867,2.61162 -0.464498,-0.30134 -1.899404,-2.6338 -3.189343,-5.18181 l -2.34532,-4.6321 0.48424,3.23785 c 0.26682,1.78115 1.330323,4.75043 2.36203,6.59836 2.807013,5.02777 2.269525,5.98435 -1.328264,2.36306 -2.537394,-2.55398 -3.000478,-2.80075 -2.222363,-1.18551 0.540402,1.12176 1.632958,3.01401 2.427293,4.20504 0.794336,1.19104 1.443627,2.56776 1.443627,3.05938 0,3.42217 -5.500062,-4.62042 -6.920605,-10.11984 -1.109965,-4.29695 -1.076747,-10.09866 0.07742,-13.54411 0.916647,-2.7364 0.936296,-2.7455 1.477024,-0.73297 l 0.548003,2.03958 0.07742,-2.15272 c 0.08787,-2.44221 3.064569,-6.55725 3.664475,-5.06549 0.239609,0.59582 1.063876,0.22175 2.246652,-1.01979 1.146914,-1.204 2.233773,-1.87217 2.777959,-1.94238 z m -16.893933,90.87298 c -0.04375,1.9e-4 -0.07973,0.0151 -0.107785,0.0446 -0.224462,0.2356 0.227322,1.16491 1.003408,2.06507 1.934403,2.24369 2.242735,2.0529 0.693733,-0.42862 -0.620347,-0.9938 -1.283123,-1.6824 -1.589356,-1.68106 z m -2.940392,32.32579 c -0.402305,-0.0143 -0.05255,0.51397 0.777222,1.17277 0.829777,0.65878 1.83676,1.20946 2.239066,1.22375 0.402305,0.0143 0.05255,-0.51397 -0.777222,-1.17277 -0.829777,-0.65878 -1.83676,-1.20946 -2.239066,-1.22375 z"
       id="path980"
       inkscape:connector-curvature="0" />
  </g>
</svg>
